<?xml version="1.0" encoding="UTF-8"?>
<svg version="1.1" xmlns="http://www.w3.org/2000/svg" width="272" height="354">
<path d="M0 0 C89.76 0 179.52 0 272 0 C272 116.82 272 233.64 272 354 C182.24 354 92.48 354 0 354 C0 237.18 0 120.36 0 0 Z " fill="#FDFDFD" transform="translate(0,0)"/>
<path d="M0 0 C1.64327349 -0.00337589 3.28654454 -0.0082349 4.92980957 -0.01449585 C8.35921201 -0.02183093 11.78795941 -0.01127171 15.21728516 0.01220703 C19.58845422 0.04069364 23.95808786 0.02427136 28.32920074 -0.00565529 C31.71815322 -0.02382029 35.10674838 -0.0179285 38.49571228 -0.00501633 C40.10627937 -0.00170763 41.7168801 -0.00567896 43.32740784 -0.01741409 C52.30768908 -0.06850692 60.46712672 0.01643222 67.96875 5.6640625 C73.78763721 11.76902471 77.3498427 18.47335733 77.23242188 26.96679688 C77.20728516 27.67126953 77.18214844 28.37574219 77.15625 29.1015625 C77.14271484 29.83310547 77.12917969 30.56464844 77.11523438 31.31835938 C77.08028874 33.10058672 77.02649805 34.88242823 76.96875 36.6640625 C76.30875 36.6640625 75.64875 36.6640625 74.96875 36.6640625 C74.96875 56.4640625 74.96875 76.2640625 74.96875 96.6640625 C77.93875 96.9940625 80.90875 97.3240625 83.96875 97.6640625 C83.96875 98.6540625 83.96875 99.6440625 83.96875 100.6640625 C85.28359375 100.80134766 85.28359375 100.80134766 86.625 100.94140625 C94.43605181 102.62954245 101.31649316 109.02051638 105.7578125 115.515625 C109.77725374 122.64689171 112.03446617 129.70755698 112.2409668 137.86621094 C112.28926888 139.74901764 112.28926888 139.74901764 112.33854675 141.66986084 C112.44081543 146.65011019 112.51537753 151.63077704 112.56900311 156.61178207 C112.60997457 160.38798165 112.67035797 164.16158754 112.77807617 167.93652344 C112.88218521 171.59837145 112.93645682 175.25790905 112.95646095 178.92115021 C112.97232588 180.31039207 113.00540663 181.69955566 113.05661583 183.08794403 C113.43624512 193.89760984 113.43624512 193.89760984 109.81999207 198.25056458 C107.29058759 200.30306036 104.77208414 202.0115143 101.96875 203.6640625 C100.57969793 204.59156713 99.19247338 205.52182664 97.80859375 206.45703125 C96.5125773 207.26292198 95.21177394 208.06116655 93.90625 208.8515625 C93.21072021 209.27663086 92.51519043 209.70169922 91.79858398 210.13964844 C90.44442938 210.96376498 89.08818101 211.78445469 87.72949219 212.60107422 C86.32250791 213.45049318 84.9284707 214.32134508 83.5390625 215.19921875 C76.2523172 219.60812495 68.01785095 222.02741775 59.96875 224.6640625 C58.834375 225.04820312 57.7 225.43234375 56.53125 225.828125 C24.31992239 235.97159596 -12.51693348 234.12127974 -44.03125 222.6640625 C-44.75989258 222.40689453 -45.48853516 222.14972656 -46.23925781 221.88476562 C-67.21306818 214.48224432 -67.21306818 214.48224432 -71.03125 210.6640625 C-71.1475026 208.29909058 -71.19923136 205.96291264 -71.20825195 203.59667969 C-71.21482315 202.85663696 -71.22139435 202.11659424 -71.22816467 201.35412598 C-71.24796747 198.88972883 -71.2595842 196.42539324 -71.26953125 193.9609375 C-71.27360678 193.11754066 -71.2776823 192.27414383 -71.28188133 191.40518951 C-71.30278549 186.9293085 -71.31706048 182.45345841 -71.32641602 177.97753906 C-71.33740627 173.38139353 -71.37170661 168.78574215 -71.41158772 164.18976974 C-71.43792835 160.63607983 -71.44612386 157.08250359 -71.44969749 153.52872467 C-71.45452953 151.83687302 -71.46604529 150.14502527 -71.48473549 148.45326996 C-71.64158905 133.29624248 -69.77609555 120.241125 -59.03125 108.6640625 C-53.30131544 103.62614902 -47.39382474 100.53434088 -40.03125 98.6640625 C-38.87302734 98.35855469 -38.87302734 98.35855469 -37.69140625 98.046875 C-35.81014138 97.56416029 -33.92137672 97.11081972 -32.03125 96.6640625 C-32.36125 96.0040625 -32.69125 95.3440625 -33.03125 94.6640625 C-33.12235781 92.78486702 -33.14877837 90.90239458 -33.14477539 89.02099609 C-33.14469986 87.83992279 -33.14462433 86.65884949 -33.14454651 85.44198608 C-33.13938522 84.16175568 -33.13422394 82.88152527 -33.12890625 81.5625 C-33.1274913 80.25576324 -33.12607635 78.94902649 -33.12461853 77.60269165 C-33.12079894 74.12729992 -33.11097342 70.65194993 -33.09991455 67.17657471 C-33.08968843 63.63074305 -33.08511833 60.08490465 -33.08007812 56.5390625 C-33.06935066 49.58071201 -33.05228092 42.62238926 -33.03125 35.6640625 C-31.05125 35.6640625 -29.07125 35.6640625 -27.03125 35.6640625 C-27.03125 55.4640625 -27.03125 75.2640625 -27.03125 95.6640625 C19.99375 96.1590625 19.99375 96.1590625 67.96875 96.6640625 C67.96875 76.5340625 67.96875 56.4040625 67.96875 35.6640625 C66.97875 35.6640625 65.98875 35.6640625 64.96875 35.6640625 C64.93007813 34.01857422 64.93007813 34.01857422 64.890625 32.33984375 C64.8343231 30.88537802 64.77697623 29.43095247 64.71875 27.9765625 C64.70457031 27.25533203 64.69039062 26.53410156 64.67578125 25.79101562 C64.45267755 20.90504459 63.70457545 18.13580373 59.96875 14.6640625 C55.93967135 12.63457388 52.55093898 12.40166283 48.07055664 12.37353516 C47.05979317 12.36345932 47.05979317 12.36345932 46.02861023 12.35317993 C43.81196624 12.33425825 41.59562586 12.330279 39.37890625 12.328125 C37.83100767 12.32169388 36.28311029 12.31496529 34.73521423 12.30795288 C31.49475283 12.29599536 28.25439792 12.29227057 25.01391602 12.29345703 C20.87002074 12.29366034 16.72681037 12.26633999 12.58307743 12.23191261 C9.38737373 12.20963317 6.19183473 12.20561977 2.99606133 12.20667648 C1.46868971 12.2043228 -0.0586866 12.19551229 -1.58598137 12.18001175 C-3.72569153 12.16032553 -5.86392614 12.16619782 -8.00366211 12.17822266 C-9.82636879 12.1739476 -9.82636879 12.1739476 -11.68589783 12.16958618 C-15.72565554 12.76670254 -17.86806468 14.12348636 -21.03125 16.6640625 C-23.43244059 20.26584838 -23.46896322 23.17272619 -23.65625 27.3515625 C-23.69492188 28.05345703 -23.73359375 28.75535156 -23.7734375 29.47851562 C-23.8674834 31.20660905 -23.9504468 32.93529925 -24.03125 34.6640625 C-27.99125 34.6640625 -31.95125 34.6640625 -36.03125 34.6640625 C-36.76013158 24.66218752 -36.67417939 16.84246219 -30.03125 8.6640625 C-29.04125 8.3340625 -28.05125 8.0040625 -27.03125 7.6640625 C-27.03125 7.0040625 -27.03125 6.3440625 -27.03125 5.6640625 C-18.41140717 -0.14348624 -9.97500518 -0.072683 0 0 Z " fill="#FD6501" transform="translate(102.03125,3.3359375)"/>
<path d="M0 0 C30.69 0 61.38 0 93 0 C90.51343433 3.7298485 88.72384135 4.11262845 84.5625 5.625 C83.40878906 6.05039063 82.25507812 6.47578125 81.06640625 6.9140625 C79.05073342 7.62789313 77.02860593 8.32379802 75 9 C75 9.66 75 10.32 75 11 C74.4225 11.53625 73.845 12.0725 73.25 12.625 C66.22750657 20.03763195 66.25084427 28.36758015 66 38 C69.96 38 73.92 38 78 38 C77.94199219 36.98679688 77.88398437 35.97359375 77.82421875 34.9296875 C77.33192563 22.73023861 77.33192563 22.73023861 80.25 19.1875 C84.92147102 15.47155715 87.76716419 14.74813141 93.78466797 14.7253418 C94.7952124 14.7176754 94.7952124 14.7176754 95.82617188 14.70985413 C98.04826804 14.69598005 100.27005322 14.69691341 102.4921875 14.69921875 C104.04151525 14.69533016 105.59084193 14.69099516 107.14016724 14.68623352 C110.38661149 14.67877569 113.63294699 14.67905906 116.87939453 14.68432617 C121.03105674 14.6901155 125.18227204 14.67320099 129.3338604 14.6499815 C132.53384994 14.6352176 135.73373258 14.63437614 138.93375015 14.63749123 C140.4638978 14.63697919 141.99405161 14.63176357 143.52416611 14.62167931 C145.66858304 14.60928233 147.81213885 14.61612546 149.95654297 14.62768555 C151.78377396 14.62674141 151.78377396 14.62674141 153.6479187 14.6257782 C158.50819154 15.16837245 161.78213088 16.88093152 165.359375 20.16796875 C167.58020978 24.0015526 167.45161219 26.97396075 167.25 31.3125 C167.23195312 32.05306641 167.21390625 32.79363281 167.1953125 33.55664062 C167.14847337 35.3716571 167.07673789 37.18600166 167 39 C167.99 39 168.98 39 170 39 C170 59.13 170 79.26 170 100 C147.73961082 100.04010881 147.73961082 100.04010881 138.25195312 100.04882812 C131.77774232 100.05480622 125.30354565 100.061879 118.8293457 100.07543945 C113.60981784 100.08630355 108.39030513 100.09228433 103.17076683 100.09487724 C101.17926991 100.09672513 99.18777381 100.10033354 97.19628334 100.10573006 C94.40728587 100.11298718 91.61835109 100.11398896 88.8293457 100.11352539 C88.00575562 100.11712067 87.18216553 100.12071594 86.33361816 100.12442017 C85.56947098 100.1230455 84.80532379 100.12167084 84.01802063 100.12025452 C83.35893865 100.12117631 82.69985666 100.1220981 82.0208025 100.12304783 C80 100 80 100 75 99 C75 79.2 75 59.4 75 39 C73.02 39 71.04 39 69 39 C69.10752094 46.64092032 69.22015837 54.28175064 69.33933926 61.92249775 C69.39451792 65.47035451 69.44792977 69.01821959 69.49731445 72.56616211 C69.55415852 76.64445958 69.61866801 80.72260438 69.68359375 84.80078125 C69.70030624 86.07585037 69.71701874 87.35091949 69.73423767 88.66462708 C69.7641555 90.43612373 69.7641555 90.43612373 69.79467773 92.2434082 C69.81799416 93.80560844 69.81799416 93.80560844 69.84178162 95.39936829 C69.89468675 98.11411733 69.89468675 98.11411733 71 101 C70.01 101.24234375 69.02 101.4846875 68 101.734375 C54.02490355 105.24363374 44.39261029 109.2899205 36.53515625 122 C34.56135924 125.85719111 33.54298773 129.64750476 32.703125 133.8828125 C32.47109375 134.58148438 32.2390625 135.28015625 32 136 C31.01 136.33 30.02 136.66 29 137 C29 162.74 29 188.48 29 215 C29.66 215 30.32 215 31 215 C31 216.98 31 218.96 31 221 C26.20867288 220.50372318 22.97909713 218.19771508 19.1875 215.4375 C18.2912793 214.80038086 18.2912793 214.80038086 17.37695312 214.15039062 C15.91259467 213.10776741 14.45554265 212.05489548 13 211 C13.495 211.598125 13.99 212.19625 14.5 212.8125 C16 215 16 215 16 218 C16.5878125 218.25007812 17.175625 218.50015625 17.78125 218.7578125 C20.29341102 220.16426885 21.66645352 221.66640992 23.5 223.875 C25.29016487 226.01506073 26.95534332 227.96180871 29.07919312 229.77816772 C31.49699898 232.57488776 31.50364618 233.96258629 31.51416016 237.61962891 C31.5274234 238.74825348 31.54068665 239.87687805 31.55435181 241.03970337 C31.54930634 242.25636688 31.54426086 243.4730304 31.5390625 244.7265625 C31.55085541 245.98455658 31.56264832 247.24255066 31.57479858 248.53866577 C31.60415585 251.88547163 31.61754885 255.23149386 31.62164307 258.57836914 C31.62933522 263.26806644 31.65794494 267.9575263 31.69662476 272.64706421 C31.71611517 275.14018858 31.72560494 277.63341773 31.72354126 280.12661743 C31.77956552 289.36510704 32.0477161 298.06271108 37.4375 305.875 C38.03433594 306.75929688 38.63117187 307.64359375 39.24609375 308.5546875 C40.11427734 309.76511719 40.11427734 309.76511719 41 311 C41.52335937 311.73992187 42.04671875 312.47984375 42.5859375 313.2421875 C44.19452505 315.24181291 45.64951708 316.02738638 48 317 C48 317.66 48 318.32 48 319 C54.82108499 321.860455 61.87800087 324.03008535 69 326 C69 326.33 69 326.66 69 327 C68.13648926 327.04487549 67.27297852 327.08975098 66.38330078 327.13598633 C51.41562788 327.93163318 36.46303821 328.76831403 21.5625 330.4375 C20.02263428 330.60245972 20.02263428 330.60245972 18.45166016 330.77075195 C17.47890137 330.88636475 16.50614258 331.00197754 15.50390625 331.12109375 C14.67705322 331.2183374 13.8502002 331.31558105 12.99829102 331.41577148 C8.58678981 332.27536943 4.30492054 333.70852384 0 335 C0 224.45 0 113.9 0 0 Z " fill="#FEFEFD" transform="translate(0,0)"/>
<path d="M0 0 C0.33 0.66 0.66 1.32 1 2 C0.21484375 3.90429687 0.21484375 3.90429687 -1.0625 6.21875 C-1.5263208 7.06397217 -1.9901416 7.90919434 -2.46801758 8.7800293 C-2.97357178 9.67761963 -3.47912598 10.57520996 -4 11.5 C-4.50748779 12.41112549 -5.01497559 13.32225098 -5.5378418 14.26098633 C-9.39558943 21.10905542 -13.40192095 27.89352582 -18.60043335 33.8265686 C-24.28036591 40.90786805 -23.79104919 48.39601952 -23.6640625 57.0234375 C-23.66515872 58.57606544 -23.66947999 60.12869409 -23.67684937 61.68130493 C-23.69019278 65.75110443 -23.67153508 69.82001444 -23.64239502 73.88970947 C-23.59687105 80.39388636 -23.58159199 86.89757613 -23.60194016 93.40187454 C-23.60157166 95.65491932 -23.57597044 97.9066656 -23.54824829 100.15951538 C-23.49944036 111.40048531 -25.54622872 122.17790356 -33 131 C-42.11520337 139.3330407 -50.42662003 144.44117123 -63 144 C-63 146.97 -63 149.94 -63 153 C-63.66 153 -64.32 153 -65 153 C-65 153.99 -65 154.98 -65 156 C-67.89587006 158.36934823 -69.82434998 158.98151052 -73.5625 159.375 C-77.15055985 158.98357529 -78.52814902 158.56692217 -81 156 C-82 153 -82 153 -82 144 C-104.11 144 -126.22 144 -149 144 C-149 146.97 -149 149.94 -149 153 C-151.18159145 155.75569447 -152.87177494 157.43588747 -156 159 C-159.37244761 159.29325631 -161.38305009 159.340946 -164.375 157.6875 C-166 156 -166 156 -166 153 C-166.66 153 -167.32 153 -168 153 C-168 150.03 -168 147.06 -168 144 C-169.093125 144.0825 -170.18625 144.165 -171.3125 144.25 C-177.55447807 144.25 -184.53876061 142.38721715 -189.078125 137.984375 C-189.71234375 137.32953125 -190.3465625 136.6746875 -191 136 C-191.66902344 135.68675781 -192.33804688 135.37351562 -193.02734375 135.05078125 C-195.73619767 133.60784718 -196.86374299 131.72233428 -198.5625 129.1875 C-199.14128906 128.33542969 -199.72007812 127.48335938 -200.31640625 126.60546875 C-200.87199219 125.74566406 -201.42757812 124.88585937 -202 124 C-202.52464844 123.27425781 -203.04929687 122.54851562 -203.58984375 121.80078125 C-207.67312613 113.69077164 -207.25704632 104.44473189 -207.203125 95.58203125 C-207.2136651 93.00325012 -207.22542 90.42447372 -207.23828125 87.84570312 C-207.24862056 83.81657345 -207.25195743 79.78810221 -207.22998047 75.7590332 C-207.20998854 71.84554209 -207.23764788 67.93297959 -207.265625 64.01953125 C-207.25025696 62.81835159 -207.23488892 61.61717194 -207.21905518 60.3795929 C-207.28932742 53.03930645 -207.28932742 53.03930645 -210.87792969 46.86206055 C-211.89514225 45.88304625 -212.93502556 44.92683323 -214 44 C-215.3303125 42.6078125 -215.3303125 42.6078125 -216.6875 41.1875 C-218.99512168 38.88133196 -218.99512168 38.88133196 -222 37 C-225 32.55555556 -225 32.55555556 -225 30 C-221.25195611 31.73128317 -217.87739688 33.98750177 -214.4375 36.25 C-208.44031556 40.14497409 -202.34862772 43.70129358 -196 47 C-195.08089844 47.50273437 -194.16179687 48.00546875 -193.21484375 48.5234375 C-186.23689966 52.2237201 -179.21077963 54.70727346 -171.6640625 56.921875 C-168.41393456 57.87820262 -165.21164347 58.92357005 -162 60 C-125.74850312 71.29330121 -84.61539754 65.27355479 -51.48046875 47.89453125 C-49.01552371 46.55278227 -46.59449854 45.18100733 -44.17578125 43.76171875 C-41 42 -41 42 -39 42 C-39 41.34 -39 40.68 -39 40 C-37.28480923 38.5760131 -35.5012088 37.2336784 -33.6875 35.9375 C-32.70136719 35.22464844 -31.71523437 34.51179688 -30.69921875 33.77734375 C-28 32 -28 32 -25 31 C-24.67 30.01 -24.34 29.02 -24 28 C-22.59237358 26.8604929 -21.18234886 25.7237642 -19.7578125 24.60546875 C-16.91430565 22.00839916 -14.76786846 18.90248505 -12.515625 15.79296875 C-12.01546875 15.20128906 -11.5153125 14.60960937 -11 14 C-10.34 14 -9.68 14 -9 14 C-8.74476563 13.27425781 -8.48953125 12.54851562 -8.2265625 11.80078125 C-6.93198926 8.8447016 -5.39544896 6.69435334 -3.375 4.1875 C-2.74335938 3.39730469 -2.11171875 2.60710937 -1.4609375 1.79296875 C-0.97882813 1.20128906 -0.49671875 0.60960937 0 0 Z " fill="#529C95" transform="translate(238,181)"/>
<path d="M0 0 C0.99 0 1.98 0 3 0 C3 2.97 3 5.94 3 9 C3.66 9 4.32 9 5 9 C5.28875 9.639375 5.5775 10.27875 5.875 10.9375 C6.82823451 13.15206079 6.82823451 13.15206079 9 14 C13.6478538 14.41314256 16.24440152 13.78987316 20 11 C21.63379316 8.02050148 21.63379316 8.02050148 22 0 C44.11 0 66.22 0 89 0 C89.99 5.94 89.99 5.94 91 12 C94.71575751 14.47717167 96.59986738 14.30345742 101 14 C103.83378132 13.1025173 103.83378132 13.1025173 106 12 C106 11.01 106 10.02 106 9 C106.66 9 107.32 9 108 9 C108 6.03 108 3.06 108 0 C108.99 0 109.98 0 111 0 C111 0.66 111 1.32 111 2 C112.0003125 1.96519531 113.000625 1.93039062 114.03125 1.89453125 C124.98358782 1.64755304 135.79147499 2.35737756 146.6875 3.375 C147.73381592 3.46982162 147.73381592 3.46982162 148.80126953 3.56655884 C158.29056021 4.43673571 166.97355171 5.8407431 176 9 C176 9.99 176 10.98 176 12 C166.21753107 15.16115956 156.96737486 16.85427295 146.6875 17.6875 C145.43388672 17.80416016 144.18027344 17.92082031 142.88867188 18.04101562 C122.21471112 19.85524024 101.45648851 20.16072798 80.71484375 20.16796875 C78.47310874 20.17120019 76.23137391 20.17456549 73.98963928 20.17805481 C69.33008334 20.18397715 64.67054575 20.1859019 60.01098633 20.18530273 C55.30782214 20.18522156 50.60475554 20.19216237 45.90161133 20.20581055 C19.85736485 20.28027254 -6.03498812 20.20021704 -32 18 C-32.99897812 17.91970551 -33.99795624 17.83941101 -35.02720642 17.75668335 C-45.48191438 16.91592541 -55.02828612 15.35101641 -65 12 C-65 11.01 -65 10.02 -65 9 C-58.50389445 6.22037915 -52.44293343 5.1704769 -45.4375 4.4375 C-44.33229004 4.31528076 -43.22708008 4.19306152 -42.08837891 4.06713867 C-28.09509772 2.58982221 -14.04619286 1.78504209 0 1 C0 0.67 0 0.34 0 0 Z " fill="#CACCCC" transform="translate(67,325)"/>
<path d="M0 0 C1.64327349 -0.00337589 3.28654454 -0.0082349 4.92980957 -0.01449585 C8.35921201 -0.02183093 11.78795941 -0.01127171 15.21728516 0.01220703 C19.58845422 0.04069364 23.95808786 0.02427136 28.32920074 -0.00565529 C31.71815322 -0.02382029 35.10674838 -0.0179285 38.49571228 -0.00501633 C40.10627937 -0.00170763 41.7168801 -0.00567896 43.32740784 -0.01741409 C52.30768908 -0.06850692 60.46712672 0.01643222 67.96875 5.6640625 C73.78763721 11.76902471 77.3498427 18.47335733 77.23242188 26.96679688 C77.20728516 27.67126953 77.18214844 28.37574219 77.15625 29.1015625 C77.13594727 30.19887695 77.13594727 30.19887695 77.11523438 31.31835938 C77.08028874 33.10058672 77.02649805 34.88242823 76.96875 36.6640625 C76.30875 36.6640625 75.64875 36.6640625 74.96875 36.6640625 C74.96875 56.4640625 74.96875 76.2640625 74.96875 96.6640625 C77.93875 96.9940625 80.90875 97.3240625 83.96875 97.6640625 C83.96875 98.3240625 83.96875 98.9840625 83.96875 99.6640625 C44.69875 99.3340625 5.42875 99.0040625 -35.03125 98.6640625 C-33.54625 97.6740625 -33.54625 97.6740625 -32.03125 96.6640625 C-32.36125 96.0040625 -32.69125 95.3440625 -33.03125 94.6640625 C-33.12235781 92.78486702 -33.14877837 90.90239458 -33.14477539 89.02099609 C-33.14466209 87.24938614 -33.14466209 87.24938614 -33.14454651 85.44198608 C-33.13938522 84.16175568 -33.13422394 82.88152527 -33.12890625 81.5625 C-33.1274913 80.25576324 -33.12607635 78.94902649 -33.12461853 77.60269165 C-33.12079894 74.12729992 -33.11097342 70.65194993 -33.09991455 67.17657471 C-33.08968843 63.63074305 -33.08511833 60.08490465 -33.08007812 56.5390625 C-33.06935066 49.58071201 -33.05228092 42.62238926 -33.03125 35.6640625 C-31.05125 35.6640625 -29.07125 35.6640625 -27.03125 35.6640625 C-27.03125 55.4640625 -27.03125 75.2640625 -27.03125 95.6640625 C19.99375 96.1590625 19.99375 96.1590625 67.96875 96.6640625 C67.96875 76.5340625 67.96875 56.4040625 67.96875 35.6640625 C66.97875 35.6640625 65.98875 35.6640625 64.96875 35.6640625 C64.94296875 34.56707031 64.9171875 33.47007813 64.890625 32.33984375 C64.8343231 30.88537802 64.77697623 29.43095247 64.71875 27.9765625 C64.70457031 27.25533203 64.69039063 26.53410156 64.67578125 25.79101562 C64.45267755 20.90504459 63.70457545 18.13580373 59.96875 14.6640625 C55.93967135 12.63457388 52.55093898 12.40166283 48.07055664 12.37353516 C47.05979317 12.36345932 47.05979317 12.36345932 46.02861023 12.35317993 C43.81196624 12.33425825 41.59562586 12.330279 39.37890625 12.328125 C37.83100767 12.32169388 36.28311029 12.31496529 34.73521423 12.30795288 C31.49475283 12.29599536 28.25439792 12.29227057 25.01391602 12.29345703 C20.87002074 12.29366034 16.72681037 12.26633999 12.58307743 12.23191261 C9.38737373 12.20963317 6.19183473 12.20561977 2.99606133 12.20667648 C1.46868971 12.2043228 -0.0586866 12.19551229 -1.58598137 12.18001175 C-3.72569153 12.16032553 -5.86392614 12.16619782 -8.00366211 12.17822266 C-9.82636879 12.1739476 -9.82636879 12.1739476 -11.68589783 12.16958618 C-15.72565554 12.76670254 -17.86806468 14.12348636 -21.03125 16.6640625 C-23.43244059 20.26584838 -23.46896322 23.17272619 -23.65625 27.3515625 C-23.71425781 28.4044043 -23.71425781 28.4044043 -23.7734375 29.47851562 C-23.8674834 31.20660905 -23.9504468 32.93529925 -24.03125 34.6640625 C-27.99125 34.6640625 -31.95125 34.6640625 -36.03125 34.6640625 C-36.76013158 24.66218752 -36.67417939 16.84246219 -30.03125 8.6640625 C-29.04125 8.3340625 -28.05125 8.0040625 -27.03125 7.6640625 C-27.03125 7.0040625 -27.03125 6.3440625 -27.03125 5.6640625 C-18.41140717 -0.14348624 -9.97500518 -0.072683 0 0 Z " fill="#FD6501" transform="translate(102.03125,3.3359375)"/>
<path d="M0 0 C0.33 0 0.66 0 1 0 C1 3.96 1 7.92 1 12 C4.63 12 8.26 12 12 12 C12 12.66 12 13.32 12 14 C11.34 14 10.68 14 10 14 C10 33.8 10 53.6 10 74 C12.97 74.33 15.94 74.66 19 75 C19 75.66 19 76.32 19 77 C-20.27 76.67 -59.54 76.34 -100 76 C-98.515 75.01 -98.515 75.01 -97 74 C-97.33 73.34 -97.66 72.68 -98 72 C-98.09110781 70.12080452 -98.11752837 68.23833208 -98.11352539 66.35693359 C-98.11344986 65.17586029 -98.11337433 63.99478699 -98.11329651 62.77792358 C-98.10813522 61.49769318 -98.10297394 60.21746277 -98.09765625 58.8984375 C-98.0962413 57.59170074 -98.09482635 56.28496399 -98.09336853 54.93862915 C-98.08954894 51.46323742 -98.07972342 47.98788743 -98.06866455 44.51251221 C-98.05843843 40.96668055 -98.05386833 37.42084215 -98.04882812 33.875 C-98.03810066 26.91664951 -98.02103092 19.95832676 -98 13 C-96.02 13 -94.04 13 -92 13 C-92 32.8 -92 52.6 -92 73 C-44.975 73.495 -44.975 73.495 3 74 C3 53.87 3 33.74 3 13 C2.01 13 1.02 13 0 13 C0 8.71 0 4.42 0 0 Z " fill="#FDD9B7" transform="translate(167,26)"/>
<path d="M0 0 C0 15.51 0 31.02 0 47 C-5.61 46.34 -11.22 45.68 -17 45 C-17.33 46.98 -17.66 48.96 -18 51 C-18.66 51.66 -19.32 52.32 -20 53 C-22.31939081 48.26844274 -23.31768668 46.20619145 -22 41 C-21.29363079 39.35403435 -20.52819402 37.73253257 -19.71484375 36.13671875 C-19.04291992 34.80737305 -19.04291992 34.80737305 -18.35742188 33.45117188 C-17.88884766 32.53916016 -17.42027344 31.62714844 -16.9375 30.6875 C-16.46505859 29.75615234 -15.99261719 28.82480469 -15.50585938 27.86523438 C-14.34262356 25.57401231 -13.17386868 23.2857876 -12 21 C-16.05250058 27.30655415 -20.02692864 33.64457956 -23.8359375 40.1015625 C-25 42 -25 42 -26 43 C-28.69654854 43.07319621 -31.36691458 43.09242537 -34.0625 43.0625 C-35.20041992 43.05573242 -35.20041992 43.05573242 -36.36132812 43.04882812 C-38.24091871 43.0370068 -40.12046899 43.01907078 -42 43 C-40.52640603 39.66741055 -38.62902004 37.25610816 -36.1875 34.5625 C-35.4759375 33.77746094 -34.764375 32.99242187 -34.03125 32.18359375 C-31.74229865 29.72297105 -29.41034068 27.3414738 -27 25 C-26.443125 24.401875 -25.88625 23.80375 -25.3125 23.1875 C-24 22 -24 22 -22 22 C-21.773125 21.443125 -21.54625 20.88625 -21.3125 20.3125 C-19.62594519 17.34095104 -17.44443894 15.397301 -15 13 C-13.91069854 11.89134504 -12.82355391 10.78056785 -11.73828125 9.66796875 C-10.59641694 8.50775071 -9.45448901 7.34759529 -8.3125 6.1875 C-7.73177734 5.59001953 -7.15105469 4.99253906 -6.55273438 4.37695312 C-2.22580357 0 -2.22580357 0 0 0 Z " fill="#599D96" transform="translate(268,128)"/>
<path d="M0 0 C3.93415328 1.78136035 6.39022502 4.17385326 8.9375 7.625 C11.37529763 15.36859246 10.54857856 22.62550348 7.18359375 29.9609375 C5.45462195 32.93956219 4.32458501 33.98816978 1 35 C-4.01897035 35.48149472 -8.64677356 35.85651966 -13 33 C-17.6543111 27.53730855 -18.69134789 21.89034448 -18.3515625 14.87109375 C-17.67251118 9.32550793 -16.55717582 5.48302459 -12.375 1.5 C-8.042362 -0.42561689 -4.66252596 -0.93250519 0 0 Z " fill="#FDFBF6" transform="translate(94,156)"/>
<path d="M0 0 C7.44143355 2.07667913 11.02962069 5.59229681 14.984375 12 C17.21366892 16.38999418 17.10778685 20.35902024 17.0625 25.25 C17.05347656 26.51328125 17.04445313 27.7765625 17.03515625 29.078125 C17.02355469 30.04234375 17.01195312 31.0065625 17 32 C13.37 32 9.74 32 6 32 C5.97421875 31.21496094 5.9484375 30.42992188 5.921875 29.62109375 C5.56422104 22.99636706 5.156685 18.28011337 1 13 C-3.45595461 10.26952186 -6.82239245 9.61907848 -12.01171875 9.59594727 C-13.02270126 9.58565239 -13.02270126 9.58565239 -14.05410767 9.57514954 C-16.26545726 9.55695949 -18.4760922 9.56070699 -20.6875 9.56640625 C-22.23397043 9.56184114 -23.78043882 9.55653459 -25.3269043 9.55052185 C-28.56144475 9.54160646 -31.79573807 9.54399634 -35.03027344 9.55395508 C-39.16633218 9.56545148 -43.301538 9.54521586 -47.43748474 9.51603794 C-50.62892025 9.49765563 -53.82015202 9.49797223 -57.0116272 9.50367546 C-58.53619586 9.50382838 -60.06077859 9.49780812 -61.58529663 9.48538399 C-63.72016319 9.47043359 -65.85346231 9.48117738 -67.98828125 9.49829102 C-69.80646362 9.49854027 -69.80646362 9.49854027 -71.66137695 9.49879456 C-75.69287402 10.1040166 -77.84096816 11.4648626 -81 14 C-83.40119059 17.60178588 -83.43771322 20.50866369 -83.625 24.6875 C-83.68300781 25.7403418 -83.68300781 25.7403418 -83.7421875 26.81445312 C-83.8362334 28.54254655 -83.9191968 30.27123675 -84 32 C-87.96 32 -91.92 32 -96 32 C-96.738041 16.25512528 -96.738041 16.25512528 -92 9 C-91.67 9 -91.34 9 -91 9 C-91 10.65 -91 12.3 -91 14 C-91.66 14 -92.32 14 -93 14 C-93.33 19.28 -93.66 24.56 -94 30 C-91.36 30 -88.72 30 -86 30 C-86.03480469 28.948125 -86.03480469 28.948125 -86.0703125 27.875 C-86.29190541 16.22554433 -86.29190541 16.22554433 -84 11 C-76.85238709 5.42749603 -67.27595474 6.4708953 -58.73046875 6.57421875 C-57.1610811 6.57915097 -55.59168753 6.58244443 -54.02229309 6.58418274 C-50.75010061 6.59178499 -47.47835148 6.6122351 -44.20629883 6.64331055 C-40.01548197 6.683047 -35.8249513 6.70095088 -31.6339674 6.71061993 C-27.62442936 6.72059212 -23.61496049 6.74045304 -19.60546875 6.76171875 C-18.84358938 6.7651145 -18.08171001 6.76851025 -17.29674339 6.7720089 C-15.1406978 6.78360179 -12.98483075 6.80212171 -10.82885742 6.82299805 C-9.60357834 6.83284225 -8.37829926 6.84268646 -7.1158905 6.85282898 C-4.54938527 6.97405121 -2.43834096 7.24218233 0 8 C0 5.36 0 2.72 0 0 Z " fill="#F26A10" transform="translate(162,6)"/>
<path d="M0 0 C1.66243111 0.0042572 3.32486819 0.00657947 4.98730469 0.00706482 C8.45031157 0.01319657 11.91266301 0.0357463 15.37548828 0.0715332 C19.81878427 0.1170871 24.26149384 0.13157602 28.70500183 0.13527012 C32.12788691 0.13968929 35.55064858 0.15497175 38.97348022 0.17414665 C40.61297594 0.18303163 42.2524848 0.18976029 43.89199829 0.19430733 C46.1730185 0.20331823 48.4534999 0.22567266 50.734375 0.25219727 C52.03213867 0.26283707 53.32990234 0.27347687 54.66699219 0.28443909 C57.6875 0.55859375 57.6875 0.55859375 59.6875 2.55859375 C34.6075 2.22859375 9.5275 1.89859375 -16.3125 1.55859375 C-16.3125 2.21859375 -16.3125 2.87859375 -16.3125 3.55859375 C-17.5190625 3.99171875 -17.5190625 3.99171875 -18.75 4.43359375 C-21.4451468 5.29121943 -21.4451468 5.29121943 -22.3125 7.55859375 C-21.6525 7.88859375 -20.9925 8.21859375 -20.3125 8.55859375 C-21.6325 8.88859375 -22.9525 9.21859375 -24.3125 9.55859375 C-21.3425 9.55859375 -18.3725 9.55859375 -15.3125 9.55859375 C-15.6425 10.21859375 -15.9725 10.87859375 -16.3125 11.55859375 C-18.9525 12.21859375 -21.5925 12.87859375 -24.3125 13.55859375 C-24.9725 19.82859375 -25.6325 26.09859375 -26.3125 32.55859375 C-28.9525 32.55859375 -31.5925 32.55859375 -34.3125 32.55859375 C-34.33951408 30.45449736 -34.35890223 28.35030197 -34.375 26.24609375 C-34.38660156 25.07433594 -34.39820312 23.90257812 -34.41015625 22.6953125 C-34.3125 19.55859375 -34.3125 19.55859375 -33.3125 16.55859375 C-32.6525 16.55859375 -31.9925 16.55859375 -31.3125 16.55859375 C-31.35375 15.63046875 -31.395 14.70234375 -31.4375 13.74609375 C-31.3125 10.55859375 -31.3125 10.55859375 -29.3125 7.55859375 C-28.6525 7.55859375 -27.9925 7.55859375 -27.3125 7.55859375 C-27.3125 6.89859375 -27.3125 6.23859375 -27.3125 5.55859375 C-18.63159465 -0.34710992 -10.05661317 -0.12924732 0 0 Z " fill="#FB6605" transform="translate(102.3125,3.44140625)"/>
<path d="M0 0 C1.76966125 0.00213753 1.76966125 0.00213753 3.57507324 0.00431824 C4.22564194 0.00241989 4.87621063 0.00052155 5.54649353 -0.00143433 C7.7013242 -0.00514515 9.8558193 0.00556629 12.01062012 0.01676941 C13.50512655 0.01796118 14.99963374 0.01841438 16.49414062 0.01815796 C19.62809938 0.01972336 22.76194399 0.02801717 25.89587402 0.04142761 C29.9178093 0.05841755 33.93961904 0.06224197 37.961586 0.06148243 C41.04816898 0.06175406 44.13472439 0.06723414 47.22129822 0.07448387 C48.70450125 0.07767134 50.18770742 0.07963813 51.6709137 0.08037758 C53.74188585 0.08254032 55.81272361 0.09128308 57.88366699 0.10197449 C59.06344116 0.10578629 60.24321533 0.10959808 61.45874023 0.11352539 C64.22937012 0.24723816 64.22937012 0.24723816 66.22937012 1.24723816 C66.22937012 1.90723816 66.22937012 2.56723816 66.22937012 3.24723816 C67.21937012 3.74223816 67.21937012 3.74223816 68.22937012 4.24723816 C68.22937012 4.90723816 68.22937012 5.56723816 68.22937012 6.24723816 C67.71694763 6.08647293 67.20452515 5.9257077 66.67657471 5.7600708 C63.44881122 5.08366537 60.37272642 5.08172694 57.07409668 5.04191589 C56.00520454 5.0270665 56.00520454 5.0270665 54.91471863 5.01191711 C52.5665109 4.98040677 50.21828297 4.95558625 47.86999512 4.93083191 C46.23902876 4.91025333 44.60806763 4.88925662 42.97711182 4.86785889 C38.68967935 4.81273151 34.40219949 4.76328116 30.11468506 4.7150116 C25.73750605 4.66472833 21.36039565 4.60907792 16.98327637 4.55387878 C8.398699 4.44641141 -0.18593586 4.3449412 -8.77062988 4.24723816 C-8.15187988 3.95848816 -7.53312988 3.66973816 -6.89562988 3.37223816 C-0.63244968 0.05643688 -0.63244968 0.05643688 0 0 Z " fill="#FDF0DF" transform="translate(95.7706298828125,-0.2472381591796875)"/>
<path d="M0 0 C1.57178329 0.00493176 3.14357248 0.00822551 4.71536255 0.00996399 C7.99175099 0.01756556 11.26769654 0.03801543 14.54394531 0.0690918 C18.74382862 0.1088609 22.9434262 0.126737 27.14347649 0.13640118 C31.15818955 0.14636314 35.17283323 0.16623222 39.1875 0.1875 C39.95204372 0.19089575 40.71658745 0.1942915 41.50429916 0.19779015 C43.66294401 0.2093581 45.82140829 0.2278733 47.97998047 0.2487793 C49.20748016 0.2586235 50.43497986 0.26846771 51.69967651 0.27861023 C54.6953125 0.42578125 54.6953125 0.42578125 57.6953125 1.42578125 C58.1903125 2.91078125 58.1903125 2.91078125 58.6953125 4.42578125 C57.67122536 4.18375725 57.67122536 4.18375725 56.62644958 3.93684387 C53.30372059 3.35750468 50.17067669 3.27612744 46.79711914 3.2487793 C45.78635567 3.2389225 45.78635567 3.2389225 44.75517273 3.22886658 C42.5386034 3.20925176 40.32210129 3.19750034 38.10546875 3.1875 C36.9651611 3.18138671 36.9651611 3.18138671 35.80181694 3.17514992 C31.78137362 3.15434404 27.76096391 3.14001623 23.74047852 3.13061523 C19.59662436 3.11953514 15.45330482 3.0851017 11.30963993 3.04544353 C8.11395793 3.01926929 4.91840359 3.01092294 1.72262383 3.00733376 C0.19523934 3.00247339 -1.33213965 2.99087499 -2.85941887 2.97229576 C-4.99907606 2.94787509 -7.13734494 2.94887308 -9.27709961 2.95581055 C-10.4922374 2.94994431 -11.70737518 2.94407806 -12.95933533 2.93803406 C-17.00299444 3.52759333 -19.14014763 4.88294856 -22.3046875 7.42578125 C-24.70587809 11.02756713 -24.74240072 13.93444494 -24.9296875 18.11328125 C-24.98769531 19.16612305 -24.98769531 19.16612305 -25.046875 20.24023438 C-25.1409209 21.9683278 -25.2238843 23.697018 -25.3046875 25.42578125 C-29.2646875 25.42578125 -33.2246875 25.42578125 -37.3046875 25.42578125 C-38.0427285 9.68090653 -38.0427285 9.68090653 -33.3046875 2.42578125 C-32.9746875 2.42578125 -32.6446875 2.42578125 -32.3046875 2.42578125 C-32.3046875 4.07578125 -32.3046875 5.72578125 -32.3046875 7.42578125 C-32.9646875 7.42578125 -33.6246875 7.42578125 -34.3046875 7.42578125 C-34.6346875 12.70578125 -34.9646875 17.98578125 -35.3046875 23.42578125 C-32.6646875 23.42578125 -30.0246875 23.42578125 -27.3046875 23.42578125 C-27.33949219 22.37390625 -27.33949219 22.37390625 -27.375 21.30078125 C-27.59659291 9.65132558 -27.59659291 9.65132558 -25.3046875 4.42578125 C-18.15186935 -1.15523299 -8.55333777 -0.10321159 0 0 Z " fill="#E87A32" transform="translate(103.3046875,12.57421875)"/>
<path d="M0 0 C2.89694929 1.36419976 4.58786027 2.79314876 7 5 C7 5.99 7 6.98 7 8 C7.66 8 8.32 8 9 8 C11.09230769 12.43076923 11.09230769 12.43076923 10.625 15.3125 C10.315625 16.1478125 10.315625 16.1478125 10 17 C8.5 15.625 8.5 15.625 7 14 C7 13.34 7 12.68 7 12 C1.46414307 9.60611592 -4.06876145 9.1442909 -10 10 C-12.9679795 11.33295363 -15.42456392 13.03130826 -18 15 C-18.99 15.495 -18.99 15.495 -20 16 C-19.32154056 10.16524885 -17.88599035 6.65599153 -13.4375 2.75 C-9.02118372 -0.42068861 -5.35411292 -0.79352488 0 0 Z " fill="#FEE3C3" transform="translate(160,161)"/>
<path d="M0 0 C1.32 0 2.64 0 4 0 C4 19.14 4 38.28 4 58 C2.68 58 1.36 58 0 58 C0 38.86 0 19.72 0 0 Z " fill="#EA6D1B" transform="translate(171,40)"/>
<path d="M0 0 C1.32 0 2.64 0 4 0 C4 19.14 4 38.28 4 58 C2.68 58 1.36 58 0 58 C0 38.86 0 19.72 0 0 Z " fill="#EF6B14" transform="translate(70,40)"/>
<path d="M0 0 C0.82633801 3.1070309 1.25506064 5.7692319 1 9 C0.34 9.66 -0.32 10.32 -1 11 C-1.18784482 13.55991902 -1.25189805 16.0106964 -1.22705078 18.57080078 C-1.22734283 19.35137848 -1.22763489 20.13195618 -1.22793579 20.93618774 C-1.22653968 23.52267478 -1.21096542 26.10887564 -1.1953125 28.6953125 C-1.19158337 30.48607221 -1.18873592 32.27683396 -1.18673706 34.06759644 C-1.17909275 38.78588472 -1.15943745 43.50405031 -1.1373291 48.22229004 C-1.11688782 53.03489522 -1.10773903 57.84752019 -1.09765625 62.66015625 C-1.07619228 72.10682481 -1.04204675 81.55340221 -1 91 C0.7015625 91.185625 0.7015625 91.185625 2.4375 91.375 C3.613125 91.58125 4.78875 91.7875 6 92 C6.33 92.66 6.66 93.32 7 94 C9.31470912 94.72870472 11.6505947 95.39239518 14 96 C15.485 96.495 15.485 96.495 17 97 C17 97.99 17 98.98 17 100 C0.74639769 95.74639769 0.74639769 95.74639769 -4 91 C-4.1162526 88.63502808 -4.16798136 86.29885014 -4.17700195 83.93261719 C-4.18685875 82.8225531 -4.18685875 82.8225531 -4.19691467 81.69006348 C-4.21671747 79.22566633 -4.2283342 76.76133074 -4.23828125 74.296875 C-4.24235678 73.45347816 -4.2464323 72.61008133 -4.25063133 71.74112701 C-4.27153549 67.265246 -4.28581048 62.78939591 -4.29516602 58.31347656 C-4.30615627 53.71733103 -4.34045661 49.12167965 -4.38033772 44.52570724 C-4.40667835 40.97201733 -4.41487386 37.41844109 -4.41844749 33.86466217 C-4.42327953 32.17281052 -4.43479529 30.48096277 -4.45348549 28.78920746 C-4.56098334 18.40150661 -3.82789817 9.79417083 0 0 Z " fill="#EB8747" transform="translate(35,123)"/>
<path d="M0 0 C1.17203476 -0.00058411 2.34406952 -0.00116821 3.55162048 -0.00177002 C7.38799674 0.00099498 11.22357556 0.03201329 15.05981445 0.06347656 C17.73453587 0.0709446 20.40921431 0.07683185 23.0839386 0.08062744 C29.38066629 0.0930013 35.67711226 0.12574593 41.97371656 0.1660254 C49.14912768 0.21091862 56.3245531 0.23277399 63.50006998 0.25280714 C78.24538851 0.2944845 92.99048716 0.36472622 107.7355957 0.45410156 C107.7355957 0.78410156 107.7355957 1.11410156 107.7355957 1.45410156 C106.8576384 1.46044947 106.8576384 1.46044947 105.96194458 1.46692562 C91.69714599 1.57038794 77.43239393 1.67904844 63.16767883 1.79344082 C56.26927322 1.84863652 49.37086244 1.90209545 42.47241211 1.95141602 C35.81341777 1.99902952 29.15447853 2.05154879 22.49554443 2.10704231 C19.95669807 2.12740184 17.41783803 2.14612526 14.87896729 2.16317558 C11.31940785 2.18736168 7.75994172 2.21739638 4.20043945 2.2487793 C2.63058037 2.25741249 2.63058037 2.25741249 1.02900696 2.26622009 C-4.48892504 2.32141389 -9.80451092 2.64401338 -15.2644043 3.45410156 C-15.2644043 4.11410156 -15.2644043 4.77410156 -15.2644043 5.45410156 C-16.3987793 5.74285156 -17.5331543 6.03160156 -18.7019043 6.32910156 C-19.8775293 6.70035156 -21.0531543 7.07160156 -22.2644043 7.45410156 C-22.5944043 8.11410156 -22.9244043 8.77410156 -23.2644043 9.45410156 C-23.9244043 9.45410156 -24.5844043 9.45410156 -25.2644043 9.45410156 C-25.2644043 10.11410156 -25.2644043 10.77410156 -25.2644043 11.45410156 C-25.9244043 11.45410156 -26.5844043 11.45410156 -27.2644043 11.45410156 C-27.4706543 12.07285156 -27.6769043 12.69160156 -27.8894043 13.32910156 C-29.81216318 16.30063801 -31.93034957 16.58434815 -35.2644043 17.45410156 C-33.91460143 13.25876833 -32.24751559 11.14450953 -28.8269043 8.39160156 C-28.04444336 7.740625 -27.26198242 7.08964844 -26.45581055 6.41894531 C-17.96691724 1.1926132 -9.82967321 -0.13058314 0 0 Z " fill="#E1681A" transform="translate(74.264404296875,101.5458984375)"/>
<path d="M0 0 C5.81893471 5.81893471 4.43586483 16.8681008 4.546875 24.5 C4.55752235 25.18876221 4.56816971 25.87752441 4.57913971 26.5871582 C4.63227433 30.22733068 4.67113985 33.86737328 4.70019531 37.5078125 C4.7269339 40.50383868 4.78276486 43.49715852 4.86425781 46.4921875 C4.9632526 50.13279603 5.01246743 53.77094539 5.02664948 57.4128418 C5.04000334 58.79088366 5.07026647 60.16887795 5.11843109 61.54614258 C5.47281414 72.28449514 5.47281414 72.28449514 1.70275879 76.67578125 C-0.78132419 78.6773319 -3.23894028 80.40778916 -6 82 C-6.33 81.01 -6.66 80.02 -7 79 C-5.02 78.505 -5.02 78.505 -3 78 C-3 77.34 -3 76.68 -3 76 C-1.02 75.505 -1.02 75.505 1 75 C0.7215625 73.8553125 0.7215625 73.8553125 0.4375 72.6875 C0 70 0 70 1 67 C1.09299674 65.23303958 1.12792046 63.46276474 1.12939453 61.69335938 C1.13254669 60.60792847 1.13569885 59.52249756 1.13894653 58.4041748 C1.1369223 57.22923462 1.13489807 56.05429443 1.1328125 54.84375 C1.13376923 53.63110474 1.13472595 52.41845947 1.13571167 51.16906738 C1.13639305 48.59676054 1.1345417 46.02445199 1.13037109 43.45214844 C1.12505923 39.54357958 1.13029831 35.63512759 1.13671875 31.7265625 C1.13605724 29.22395808 1.13477457 26.72135374 1.1328125 24.21875 C1.13483673 23.06000366 1.13686096 21.90125732 1.13894653 20.70739746 C1.11920326 13.75095145 0.76249677 6.91518813 0 0 Z " fill="#EF6C16" transform="translate(210,125)"/>
<path d="M0 0 C0 0.66 0 1.32 0 2 C0.66 2 1.32 2 2 2 C2 3.98 2 5.96 2 8 C2.66 8 3.32 8 4 8 C4 12.29 4 16.58 4 21 C1.36 21 -1.28 21 -4 21 C-4.04898438 20.10796875 -4.09796875 19.2159375 -4.1484375 18.296875 C-4.22320312 17.12640625 -4.29796875 15.9559375 -4.375 14.75 C-4.44460937 13.58984375 -4.51421875 12.4296875 -4.5859375 11.234375 C-4.96751414 8.2537575 -5.57953859 6.57678743 -7 4 C-6.75 1.8125 -6.75 1.8125 -6 0 C-3.50907189 -1.24546405 -2.58919267 -0.7767578 0 0 Z " fill="#FA6505" transform="translate(173,16)"/>
<path d="M0 0 C3.02101088 0.31085327 6.04180204 0.62363234 9.0625 0.9375 C9.91005859 1.02451172 10.75761719 1.11152344 11.63085938 1.20117188 C17.58040291 1.82139456 23.48999124 2.53518356 29.375 3.625 C30.24125 3.74875 31.1075 3.8725 32 4 C32.33 3.67 32.66 3.34 33 3 C34.99958364 2.95919217 37.00045254 2.95745644 39 3 C38.67 3.66 38.34 4.32 38 5 C49.22 5.33 60.44 5.66 72 6 C72 6.33 72 6.66 72 7 C48.44046349 9.8121029 22.43246301 9.48214052 0 1 C0 0.67 0 0.34 0 0 Z " fill="#EA7A31" transform="translate(64,227)"/>
<path d="M0 0 C0.67369629 -0.00511093 1.34739258 -0.01022186 2.04150391 -0.01548767 C4.26360007 -0.02936175 6.48538525 -0.02842838 8.70751953 -0.02612305 C10.25684728 -0.03001163 11.80617396 -0.03434664 13.35549927 -0.03910828 C16.60194352 -0.04656611 19.84827902 -0.04628273 23.09472656 -0.04101562 C27.24638877 -0.03522629 31.39760407 -0.05214081 35.54919243 -0.0753603 C38.74918197 -0.09012419 41.94906461 -0.09096566 45.14908218 -0.08785057 C46.67922983 -0.08836261 48.20938364 -0.09357823 49.73949814 -0.10366249 C51.88391507 -0.11605946 54.02747088 -0.10921634 56.171875 -0.09765625 C57.99910599 -0.09860039 57.99910599 -0.09860039 59.86325073 -0.0995636 C63.56100415 0.31324857 66.01230045 1.42684055 69.21533203 3.2746582 C68.55533203 3.6046582 67.89533203 3.9346582 67.21533203 4.2746582 C66.32687592 3.96996613 65.4384198 3.66527405 64.52304077 3.35134888 C60.90850584 2.17478336 58.08508839 2.03350669 54.29199219 2.04760742 C53.62787323 2.04731537 52.96375427 2.04702332 52.2795105 2.04672241 C50.10433466 2.04810559 47.92950985 2.06361833 45.75439453 2.0793457 C44.23839505 2.08307945 42.72239314 2.08592471 41.20639038 2.08792114 C37.23123421 2.09552918 33.25622597 2.1151531 29.28112793 2.1373291 C25.21885173 2.15784873 21.15655145 2.1669359 17.09423828 2.17700195 C9.13453525 2.19840189 1.17495208 2.23250335 -6.78466797 2.2746582 C-7.44466797 3.5946582 -8.10466797 4.9146582 -8.78466797 6.2746582 C-9.44466797 6.2746582 -10.10466797 6.2746582 -10.78466797 6.2746582 C-10.12466797 7.5946582 -9.46466797 8.9146582 -8.78466797 10.2746582 C-9.77466797 10.6046582 -10.76466797 10.9346582 -11.78466797 11.2746582 C-12.11466797 12.2646582 -12.44466797 13.2546582 -12.78466797 14.2746582 C-13.77466797 14.2746582 -14.76466797 14.2746582 -15.78466797 14.2746582 C-16.28349694 10.0844948 -15.98386811 8.56239175 -13.53466797 5.0246582 C-9.0778507 0.56784094 -6.28077967 0.0237867 0 0 Z " fill="#FEEDCC" transform="translate(93.78466796875,14.725341796875)"/>
<path d="M0 0 C0.33 0.66 0.66 1.32 1 2 C0.19897461 3.92016602 0.19897461 3.92016602 -1.09765625 6.25390625 C-1.57009766 7.10919922 -2.04253906 7.96449219 -2.52929688 8.84570312 C-3.03525391 9.74224609 -3.54121094 10.63878906 -4.0625 11.5625 C-4.54138672 12.43197266 -5.02027344 13.30144531 -5.51367188 14.19726562 C-8.74131495 19.99146825 -12.2371322 25.53922238 -16 31 C-18.97 30.67 -21.94 30.34 -25 30 C-24.27167969 29.29488281 -23.54335937 28.58976562 -22.79296875 27.86328125 C-19.22487759 24.20536402 -16.14310966 20.24425885 -12.98828125 16.23046875 C-12.33214844 15.49441406 -11.67601562 14.75835937 -11 14 C-10.34 14 -9.68 14 -9 14 C-8.74476563 13.27425781 -8.48953125 12.54851562 -8.2265625 11.80078125 C-6.93198926 8.8447016 -5.39544896 6.69435334 -3.375 4.1875 C-2.42753906 3.00220703 -2.42753906 3.00220703 -1.4609375 1.79296875 C-0.97882813 1.20128906 -0.49671875 0.60960937 0 0 Z " fill="#629B91" transform="translate(238,181)"/>
<path d="M0 0 C3.82910606 1.76727972 7.29288429 4.07125153 10.8125 6.375 C15.46013007 9.41597932 20.15473536 12.28268129 25 15 C24.67 15.66 24.34 16.32 24 17 C23.01 17 22.02 17 21 17 C21 17.66 21 18.32 21 19 C16.48796098 19 15.54078326 18.6350015 12 16 C10.11295867 13.96591649 8.31770693 11.88130374 6.55078125 9.7421875 C5.09990784 7.89547687 5.09990784 7.89547687 3 7 C0 2.5 0 2.5 0 0 Z " fill="#62A19A" transform="translate(13,211)"/>
<path d="M0 0 C1.66243111 0.0042572 3.32486819 0.00657947 4.98730469 0.00706482 C8.45031157 0.01319657 11.91266301 0.0357463 15.37548828 0.0715332 C19.81878427 0.1170871 24.26149384 0.13157602 28.70500183 0.13527012 C32.12788691 0.13968929 35.55064858 0.15497175 38.97348022 0.17414665 C40.61297594 0.18303163 42.2524848 0.18976029 43.89199829 0.19430733 C46.1730185 0.20331823 48.4534999 0.22567266 50.734375 0.25219727 C52.03213867 0.26283707 53.32990234 0.27347687 54.66699219 0.28443909 C57.6875 0.55859375 57.6875 0.55859375 59.6875 2.55859375 C34.6075 2.22859375 9.5275 1.89859375 -16.3125 1.55859375 C-16.3125 2.21859375 -16.3125 2.87859375 -16.3125 3.55859375 C-19.93447194 5.04999396 -23.58816618 6.34601995 -27.3125 7.55859375 C-27.3125 6.89859375 -27.3125 6.23859375 -27.3125 5.55859375 C-18.63159465 -0.34710992 -10.05661317 -0.12924732 0 0 Z " fill="#E36E1E" transform="translate(102.3125,3.44140625)"/>
<path d="M0 0 C0.66 1.32 1.32 2.64 2 4 C-0.57784846 6.64752004 -2.91648098 8.94432065 -6 11 C-6.99 11 -7.98 11 -9 11 C-9 11.66 -9 12.32 -9 13 C-8.34 13.33 -7.68 13.66 -7 14 C-7.804375 14.61875 -8.60875 15.2375 -9.4375 15.875 C-12.03874519 17.74164041 -12.03874519 17.74164041 -13 20 C-11.58249437 19.88490339 -10.16598831 19.75746342 -8.75 19.625 C-7.96109375 19.55539063 -7.1721875 19.48578125 -6.359375 19.4140625 C-3.914123 18.98492887 -2.15163097 18.21399362 0 17 C-0.66 18.32 -1.32 19.64 -2 21 C-7.28 21 -12.56 21 -18 21 C-16.25189088 17.50378175 -14.76219066 15.40302871 -12.1875 12.5625 C-11.4759375 11.77746094 -10.764375 10.99242187 -10.03125 10.18359375 C-7.74229865 7.72297105 -5.41034068 5.3414738 -3 3 C-2.401875 2.401875 -1.80375 1.80375 -1.1875 1.1875 C-0.795625 0.795625 -0.40375 0.40375 0 0 Z " fill="#5E9F95" transform="translate(244,150)"/>
<path d="M0 0 C1 3 1 3 0.22729492 5.02124023 C-0.18415771 5.77606689 -0.59561035 6.53089355 -1.01953125 7.30859375 C-1.46490234 8.13810547 -1.91027344 8.96761719 -2.36914062 9.82226562 C-2.84544922 10.68529297 -3.32175781 11.54832031 -3.8125 12.4375 C-4.73577835 14.14447648 -5.6589589 15.85150586 -6.58203125 17.55859375 C-6.99686768 18.31454834 -7.4117041 19.07050293 -7.83911133 19.84936523 C-8.22220459 20.55907471 -8.60529785 21.26878418 -9 22 C-9.38760498 22.67426025 -9.77520996 23.34852051 -10.17456055 24.04321289 C-11.47327978 27.12195724 -10.61524791 29.80071089 -10 33 C-10.66 33 -11.32 33 -12 33 C-12 32.34 -12 31.68 -12 31 C-12.66 31 -13.32 31 -14 31 C-14.7425 32.2375 -14.7425 32.2375 -15.5 33.5 C-15.995 34.325 -16.49 35.15 -17 36 C-17.66 36 -18.32 36 -19 36 C-19 35.34 -19 34.68 -19 34 C-18.34 34 -17.68 34 -17 34 C-16.83312552 31.58354218 -16.83312552 31.58354218 -17 29 C-17.66 28.34 -18.32 27.68 -19 27 C-18.25621094 26.64035156 -17.51242188 26.28070313 -16.74609375 25.91015625 C-13.41593811 23.5937322 -11.89971166 20.94413716 -10.0625 17.4375 C-9.37725611 16.18307213 -8.69104961 14.92916964 -8.00390625 13.67578125 C-7.50141357 12.74693115 -7.50141357 12.74693115 -6.98876953 11.79931641 C-5.56030029 9.19985509 -4.03547979 6.66235313 -2.5 4.125 C-2.0153125 3.32320312 -1.530625 2.52140625 -1.03125 1.6953125 C-0.6909375 1.13585937 -0.350625 0.57640625 0 0 Z " fill="#D8F2F2" transform="translate(257,145)"/>
<path d="M0 0 C1.98 0 3.96 0 6 0 C5.690625 1.36125 5.690625 1.36125 5.375 2.75 C4.96596213 6.29499489 5.44572955 6.988601 7 10 C6.75 12.6875 6.75 12.6875 6 15 C5.01 15.495 5.01 15.495 4 16 C1.9375 15.3125 1.9375 15.3125 0 14 C-0.75 11.875 -0.75 11.875 -1 10 C-1.66 10 -2.32 10 -3 10 C-3 9.01 -3 8.02 -3 7 C-6.67387495 6.14701624 -10.0447393 5.89210529 -13.8125 5.9375 C-14.78832031 5.94652344 -15.76414063 5.95554688 -16.76953125 5.96484375 C-17.50558594 5.97644531 -18.24164063 5.98804688 -19 6 C-16.42767294 3.42767294 -15.32102308 3.70213534 -11.75 3.6875 C-7.10617124 3.77867465 -3.89289852 4.27497104 0 7 C1.875 9.1875 1.875 9.1875 3 11 C2.67 8.36 2.34 5.72 2 3 C1.34 3 0.68 3 0 3 C0 2.01 0 1.02 0 0 Z " fill="#EE7120" transform="translate(167,166)"/>
<path d="M0 0 C0 0.33 0 0.66 0 1 C-4.95 1.66 -9.9 2.32 -15 3 C-15 3.66 -15 4.32 -15 5 C-16.134375 5.28875 -17.26875 5.5775 -18.4375 5.875 C-19.613125 6.24625 -20.78875 6.6175 -22 7 C-22.33 7.66 -22.66 8.32 -23 9 C-23.66 9 -24.32 9 -25 9 C-25 9.66 -25 10.32 -25 11 C-25.66 11 -26.32 11 -27 11 C-27.20625 11.61875 -27.4125 12.2375 -27.625 12.875 C-29.54775888 15.84653645 -31.66594527 16.13024659 -35 17 C-32.70272769 9.8598293 -26.77374623 5.97201586 -20.31640625 2.59765625 C-13.52693535 -0.17134422 -7.26470546 -0.45642129 0 0 Z " fill="#EB792F" transform="translate(74,102)"/>
<path d="M0 0 C0.625 1.875 0.625 1.875 1 4 C0.34 4.66 -0.32 5.32 -1 6 C-1.31229693 9.09631454 -1.31229693 9.09631454 -1.27124023 12.78881836 C-1.27908035 13.83541374 -1.27908035 13.83541374 -1.28707886 14.90315247 C-1.2973299 16.42003564 -1.30310119 17.9369541 -1.30496025 19.45387077 C-1.30861466 21.85357568 -1.32531496 24.25286384 -1.34571838 26.65248108 C-1.40122253 33.47551739 -1.43183653 40.2986155 -1.45629883 47.12182617 C-1.47215804 51.29341373 -1.50236006 55.46470602 -1.54106331 59.63614082 C-1.55272874 61.22734001 -1.55864379 62.81859197 -1.55874443 64.40983391 C-1.55893611 66.63413256 -1.57717363 68.85761497 -1.59936523 71.08178711 C-1.60443588 72.34816513 -1.60950653 73.61454315 -1.61473083 74.91929626 C-2 78 -2 78 -3.52503967 79.93238831 C-4.01177658 80.28470016 -4.49851349 80.63701202 -5 81 C-4.83825287 80.15716461 -4.67650574 79.31432922 -4.50985718 78.44595337 C-3.98053972 74.86847452 -3.86128773 71.48033118 -3.84228516 67.86474609 C-3.83720444 67.1777916 -3.83212372 66.4908371 -3.82688904 65.7830658 C-3.81624567 64.30171324 -3.80760221 62.82034522 -3.80076981 61.33897018 C-3.78891044 58.99336277 -3.7694438 56.6479337 -3.74765015 54.30239868 C-3.68624327 47.63720613 -3.63190274 40.97203808 -3.59863281 34.30664062 C-3.57769719 30.22118436 -3.54241554 26.13606445 -3.49787521 22.05080032 C-3.48371983 20.49672014 -3.4749938 18.94258059 -3.47182083 17.38843918 C-3.46691559 15.21742167 -3.4437735 13.04730036 -3.41650391 10.87646484 C-3.40841705 9.64213715 -3.4003302 8.40780945 -3.39199829 7.13607788 C-2.97513205 3.80105063 -2.26986619 2.41809199 0 0 Z " fill="#E6FDFC" transform="translate(217,218)"/>
<path d="M0 0 C0.66 0.99 1.32 1.98 2 3 C1.125 5.6875 1.125 5.6875 0 8 C-1.98 8 -3.96 8 -6 8 C-6.33623796 9.2909136 -6.66889249 10.58276097 -7 11.875 C-7.185625 12.59429687 -7.37125 13.31359375 -7.5625 14.0546875 C-8.07313965 15.99289317 -8.07313965 15.99289317 -8 18 C-8.63903117 19.67745682 -9.30341637 21.34561387 -10 23 C-10.33 22.34 -10.66 21.68 -11 21 C-11.66 20.67 -12.32 20.34 -13 20 C-13.33 19.67 -13.66 19.34 -14 19 C-14.66 18.67 -15.32 18.34 -16 18 C-14.4462183 14.18617218 -11.91468251 11.78976754 -9 9 C-7.39313952 7.39853167 -5.78914638 5.794183 -4.1875 4.1875 C-2.09375 2.09375 -2.09375 2.09375 0 0 Z " fill="#62A29C" transform="translate(262,132)"/>
<path d="M0 0 C4.39282266 4.39282266 4.13530226 10.90850209 4.22705078 16.78320312 C4.22673626 19.44978946 4.21598369 22.11488629 4.1953125 24.78125 C4.19157606 26.20470988 4.18873207 27.62817236 4.18673706 29.05163574 C4.17915025 32.77359284 4.15954519 36.49539047 4.1373291 40.21728516 C4.11676314 44.02504317 4.1077125 47.83282729 4.09765625 51.640625 C4.07629389 59.0938222 4.04221885 66.54688864 4 74 C3.67 74 3.34 74 3 74 C2.99191315 73.27052155 2.98382629 72.54104309 2.97549438 71.78945923 C2.89717889 64.87584839 2.80978043 57.96240388 2.71247292 51.04903603 C2.66277243 47.49578287 2.61644291 43.94255573 2.578125 40.38916016 C2.53380147 36.29311404 2.47426281 32.19740629 2.4140625 28.1015625 C2.40251129 26.8407486 2.39096008 25.57993469 2.37905884 24.28091431 C2.27549126 18.02355361 1.89212243 12.17652046 0.42294312 6.08236694 C0 4 0 4 0 0 Z " fill="#EF8A4A" transform="translate(210,125)"/>
<path d="M0 0 C0.33 0 0.66 0 1 0 C1 1.65 1 3.3 1 5 C0.34 5 -0.32 5 -1 5 C-1.33 10.28 -1.66 15.56 -2 21 C0.64 21 3.28 21 6 21 C6 17.37 6 13.74 6 10 C6.66 10 7.32 10 8 10 C8 14.29 8 18.58 8 23 C4.04 23 0.08 23 -4 23 C-4.738041 7.25512528 -4.738041 7.25512528 0 0 Z " fill="#EF8943" transform="translate(70,15)"/>
<path d="M0 0 C2.01484197 0.00706962 4.02852607 0.12597405 6.0390625 0.2578125 C6.3690625 1.2478125 6.6990625 2.2378125 7.0390625 3.2578125 C7.6990625 3.2578125 8.3590625 3.2578125 9.0390625 3.2578125 C9.0390625 4.2478125 9.0390625 5.2378125 9.0390625 6.2578125 C0.6240625 6.7528125 0.6240625 6.7528125 -7.9609375 7.2578125 C-7.9609375 7.9178125 -7.9609375 8.5778125 -7.9609375 9.2578125 C-8.6209375 9.2578125 -9.2809375 9.2578125 -9.9609375 9.2578125 C-9.9609375 8.2678125 -9.9609375 7.2778125 -9.9609375 6.2578125 C-9.1978125 6.0103125 -8.4346875 5.7628125 -7.6484375 5.5078125 C-4.84308281 4.50254704 -4.84308281 4.50254704 -3.6484375 2.1328125 C-1.9609375 0.2578125 -1.9609375 0.2578125 0 0 Z " fill="#FAFCFB" transform="translate(152.9609375,162.7421875)"/>
<path d="M0 0 C14.52 0 29.04 0 44 0 C44 0.33 44 0.66 44 1 C39.07541417 2.59641649 34.98406799 3.24020659 29.75390625 3.1953125 C28.76994118 3.19106766 28.76994118 3.19106766 27.76609802 3.18673706 C25.69803591 3.17565984 23.63042827 3.15058063 21.5625 3.125 C20.14909485 3.11495402 18.73568283 3.10583102 17.32226562 3.09765625 C13.88136606 3.07576184 10.44072748 3.04132051 7 3 C7 2.34 7 1.68 7 1 C4.69 1 2.38 1 0 1 C0 0.67 0 0.34 0 0 Z " fill="#FEF0D8" transform="translate(90,234)"/>
<path d="M0 0 C0.66 1.32 1.32 2.64 2 4 C-2.455 4.495 -2.455 4.495 -7 5 C-7.66 7.31 -8.32 9.62 -9 12 C-12.00617269 8.99382731 -11.59585316 6.17618402 -12 2 C-8.15456444 -2.00566205 -5.04857305 -1.22142896 0 0 Z " fill="#70A09A" transform="translate(16,201)"/>
<path d="M0 0 C3.28560591 2.65977622 5.04294762 5.94581976 6 10 C6.24568528 14.67825726 6.17525335 19.32008651 6 24 C2.37 24 -1.26 24 -5 24 C-5 23.67 -5 23.34 -5 23 C-2.03 23 0.94 23 4 23 C4 18.71 4 14.42 4 10 C3.34 10 2.68 10 2 10 C2 8.02 2 6.04 2 4 C1.34 4 0.68 4 0 4 C0 2.68 0 1.36 0 0 Z " fill="#EC8E51" transform="translate(173,14)"/>
<path d="M0 0 C0.33 1.65 0.66 3.3 1 5 C0.34 4.67 -0.32 4.34 -1 4 C-1 3.34 -1 2.68 -1 2 C-2.8871875 1.938125 -2.8871875 1.938125 -4.8125 1.875 C-5.52019531 1.85179687 -6.22789063 1.82859375 -6.95703125 1.8046875 C-9.31359719 1.86745538 -9.31359719 1.86745538 -12 4 C-11.67 6.97 -11.34 9.94 -11 13 C-12.32 13.33 -13.64 13.66 -15 14 C-15.33 10.37 -15.66 6.74 -16 3 C-9.95509499 -0.56217617 -6.87294016 -1.47277289 0 0 Z " fill="#E5F6F5" transform="translate(17,199)"/>
<path d="M0 0 C0.33 0.66 0.66 1.32 1 2 C0.67 2.66 0.34 3.32 0 4 C0.66 4.33 1.32 4.66 2 5 C1.67 5.99 1.34 6.98 1 8 C1.66 8.66 2.32 9.32 3 10 C2.01 10.495 2.01 10.495 1 11 C-0.98 9.68 -2.96 8.36 -5 7 C-4.01 8.65 -3.02 10.3 -2 12 C-3.32 11.67 -4.64 11.34 -6 11 C-6.625 9.125 -6.625 9.125 -7 7 C-6.34 6.34 -5.68 5.68 -5 5 C-4.01 5.33 -3.02 5.66 -2 6 C-2 5.01 -2 4.02 -2 3 C-4.64 3 -7.28 3 -10 3 C-9.67 2.34 -9.34 1.68 -9 1 C-6.93359375 0.5859375 -6.93359375 0.5859375 -4.4375 0.375 C-3.61121094 0.30023438 -2.78492188 0.22546875 -1.93359375 0.1484375 C-0.97646484 0.07496094 -0.97646484 0.07496094 0 0 Z " fill="#E4F2F2" transform="translate(18,204)"/>
<path d="M0 0 C1.65 0 3.3 0 5 0 C5 0.66 5 1.32 5 2 C5.66 2 6.32 2 7 2 C9.09230769 6.43076923 9.09230769 6.43076923 8.625 9.3125 C8.41875 9.869375 8.2125 10.42625 8 11 C6.5 9.625 6.5 9.625 5 8 C5 7.34 5 6.68 5 6 C4.05125 5.71125 3.1025 5.4225 2.125 5.125 C-1 4 -1 4 -3 2 C-2.01 2 -1.02 2 0 2 C0 1.34 0 0.68 0 0 Z " fill="#FDF0DF" transform="translate(162,167)"/>
<path d="M0 0 C0 0.99 0 1.98 0 3 C-0.99 3.33 -1.98 3.66 -3 4 C-2.34 5.32 -1.68 6.64 -1 8 C-1.99 8.33 -2.98 8.66 -4 9 C-4.33 9.99 -4.66 10.98 -5 12 C-5.99 12 -6.98 12 -8 12 C-8.21863671 8.79332827 -8.33122923 6.62759222 -6.8125 3.75 C-4.69578043 1.70627076 -2.77991186 0.90159304 0 0 Z " fill="#F9F9F2" transform="translate(86,17)"/>
<path d="M0 0 C2.85572721 0.98473352 3.97012206 1.9583843 5.75 4.4375 C8.52758323 12.35361219 7.39413297 19.50462303 4 27 C3.67 27 3.34 27 3 27 C3.875 19.25 3.875 19.25 5 17 C4.91255632 15.12137125 4.75824458 13.24544819 4.5625 11.375 C4.46066406 10.37210938 4.35882813 9.36921875 4.25390625 8.3359375 C4.17011719 7.56507813 4.08632812 6.79421875 4 6 C3.01 5.67 2.02 5.34 1 5 C0.67 3.35 0.34 1.7 0 0 Z " fill="#FDDCBC" transform="translate(97,159)"/>
<path d="M0 0 C5.81266619 0.78549543 11.36877624 2.40682459 17 4 C17 4.33 17 4.66 17 5 C11.06 5 5.12 5 -1 5 C0.32 4.34 1.64 3.68 3 3 C3 2.34 3 1.68 3 1 C2.01 1.33 1.02 1.66 0 2 C0 1.34 0 0.68 0 0 Z " fill="#E9F6F5" transform="translate(52,322)"/>
<path d="M0 0 C1.4800841 0.11362262 2.95910074 0.24122908 4.4375 0.375 C5.26121094 0.44460937 6.08492187 0.51421875 6.93359375 0.5859375 C7.95646484 0.79089844 7.95646484 0.79089844 9 1 C9.33 1.66 9.66 2.32 10 3 C12.31470912 3.72870472 14.6505947 4.39239518 17 5 C17.99 5.33 18.98 5.66 20 6 C20 6.99 20 7.98 20 9 C12.84870304 7.12849037 6.50594543 4.50213658 0 1 C0 0.67 0 0.34 0 0 Z " fill="#EC752A" transform="translate(32,214)"/>
<path d="M0 0 C1.60517097 0.08733576 3.20921662 0.19552224 4.8125 0.3125 C6.15248047 0.39951172 6.15248047 0.39951172 7.51953125 0.48828125 C10.37733086 1.07784306 11.1342244 1.83484494 13 4 C13.99 4.66 14.98 5.32 16 6 C15.67 6.66 15.34 7.32 15 8 C15.61875 8.226875 16.2375 8.45375 16.875 8.6875 C19.61410209 10.37929835 20.05024472 11.99244161 21 15 C20.55269531 14.61328125 20.10539062 14.2265625 19.64453125 13.828125 C18.38508667 12.74323031 17.12184324 11.66273497 15.85546875 10.5859375 C14.42955481 9.36715632 13.02293011 8.12577957 11.625 6.875 C8.00981278 4.29272342 4.097712 2.6783657 0 1 C0 0.67 0 0.34 0 0 Z " fill="#FDE8D0" transform="translate(186,103)"/>
<path d="M0 0 C0.66 1.32 1.32 2.64 2 4 C-1.3621637 7.65882521 -4.36050852 10.14420341 -9 12 C-9.66 11.67 -10.32 11.34 -11 11 C-10.54109375 10.62488281 -10.0821875 10.24976563 -9.609375 9.86328125 C-5.96703891 6.82545052 -2.82808093 3.84619007 0 0 Z " fill="#70A8A0" transform="translate(244,150)"/>
<path d="M0 0 C1.47445263 2.94890526 0.68421874 5.04763117 -0.12109375 8.15625 C-1 10 -1 10 -4.125 11.5 C-5.07375 11.665 -6.0225 11.83 -7 12 C-7 11.34 -7 10.68 -7 10 C-6.34 10 -5.68 10 -5 10 C-5.04125 9.071875 -5.0825 8.14375 -5.125 7.1875 C-5 4 -5 4 -3 1 C-2.01 0.67 -1.02 0.34 0 0 Z " fill="#F36C11" transform="translate(76,10)"/>
<path d="M0 0 C1.65 0 3.3 0 5 0 C5.12375 0.825 5.2475 1.65 5.375 2.5 C5.94004084 6.06577162 5.94004084 6.06577162 7.125 9.6875 C8.48197426 14.82604225 7.70734857 19.80003212 7 25 C6.67 25 6.34 25 6 25 C5.94392578 23.60587891 5.94392578 23.60587891 5.88671875 22.18359375 C5.52902073 15.45746827 5.23333915 9.94934403 2 4 C1.608125 3.195625 1.21625 2.39125 0.8125 1.5625 C0.4103125 0.7890625 0.4103125 0.7890625 0 0 Z " fill="#FEF1DD" transform="translate(173,13)"/>
<path d="M0 0 C0.66 0.99 1.32 1.98 2 3 C1.125 5.6875 1.125 5.6875 0 8 C-1.98 8 -3.96 8 -6 8 C-6.33 9.65 -6.66 11.3 -7 13 C-7.33 12.34 -7.66 11.68 -8 11 C-8.66 10.67 -9.32 10.34 -10 10 C-6.7 6.7 -3.4 3.4 0 0 Z " fill="#6EA7A3" transform="translate(262,132)"/>
<path d="M0 0 C0.99 0.33 1.98 0.66 3 1 C2.67 1.763125 2.34 2.52625 2 3.3125 C0.82563314 5.99069135 0.82563314 5.99069135 1 9 C1.66 8.67 2.32 8.34 3 8 C3 9.65 3 11.3 3 13 C1.35 13.33 -0.3 13.66 -2 14 C-1.85970581 11.8537974 -1.71261836 9.70803782 -1.5625 7.5625 C-1.48128906 6.36753906 -1.40007812 5.17257813 -1.31640625 3.94140625 C-1 1 -1 1 0 0 Z " fill="#EF7929" transform="translate(140,167)"/>
<path d="M0 0 C1.32 0 2.64 0 4 0 C3.71253906 0.55816406 3.42507812 1.11632812 3.12890625 1.69140625 C1.96336835 4.07491109 0.93392193 6.47864894 -0.0625 8.9375 C-0.40410156 9.77152344 -0.74570312 10.60554688 -1.09765625 11.46484375 C-1.98862041 13.96802878 -2.54632472 16.38552083 -3 19 C-3.33 19 -3.66 19 -4 19 C-4 15.37 -4 11.74 -4 8 C-3.34 8 -2.68 8 -2 8 C-2 7.01 -2 6.02 -2 5 C-1.34 5 -0.68 5 0 5 C0 3.35 0 1.7 0 0 Z " fill="#FDEBD6" transform="translate(35,117)"/>
<path d="M0 0 C0.99 0.495 0.99 0.495 2 1 C2 1.66 2 2.32 2 3 C5.09699032 3.91257023 7.83998455 4.10624455 11.0625 4.0625 C11.91972656 4.05347656 12.77695313 4.04445312 13.66015625 4.03515625 C14.81837891 4.01775391 14.81837891 4.01775391 16 4 C16.99 4 17.98 4 19 4 C18 6 18 6 16.265625 6.62109375 C13.71855716 7.04706889 11.33143831 7.09646629 8.75 7.0625 C7.85796875 7.05347656 6.9659375 7.04445312 6.046875 7.03515625 C5.37140625 7.02355469 4.6959375 7.01195312 4 7 C3.67 6.34 3.34 5.68 3 5 C2.01 4.67 1.02 4.34 0 4 C0 2.68 0 1.36 0 0 Z " fill="#EA8847" transform="translate(79,186)"/>
<path d="M0 0 C0.33 0.66 0.66 1.32 1 2 C0.67 2.99 0.34 3.98 0 5 C0.66 5 1.32 5 2 5 C2 4.34 2 3.68 2 3 C5.15506142 2.06380187 7.96586502 1.8942877 11.25 1.9375 C12.14203125 1.94652344 13.0340625 1.95554688 13.953125 1.96484375 C14.62859375 1.97644531 15.3040625 1.98804688 16 2 C16 2.33 16 2.66 16 3 C15.1646875 3.02126953 15.1646875 3.02126953 14.3125 3.04296875 C7.97083899 3.43932256 4.12031925 5.36543286 -1 9 C-1.99 9.495 -1.99 9.495 -3 10 C-2.49287967 6.28111761 -1.88391785 3.26545761 0 0 Z " fill="#FDDAB7" transform="translate(143,167)"/>
<path d="M0 0 C-0.66 0 -1.32 0 -2 0 C-2 0.66 -2 1.32 -2 2 C-2.66 2 -3.32 2 -4 2 C-4.20625 2.61875 -4.4125 3.2375 -4.625 3.875 C-6.54775888 6.84653645 -8.66594527 7.13024659 -12 8 C-10.73090537 4.08695821 -9.53743024 2.14389712 -6 0 C-3 -1 -3 -1 0 0 Z " fill="#F0721D" transform="translate(51,111)"/>
<path d="M0 0 C-0.33 0.99 -0.66 1.98 -1 3 C-1.99 3 -2.98 3 -4 3 C-4 3.99 -4 4.98 -4 6 C-4.99 6.33 -5.98 6.66 -7 7 C-7.99 8.485 -7.99 8.485 -9 10 C-12.625 10.1875 -12.625 10.1875 -16 10 C-13.45217026 7.02753198 -10.54659117 5.58464712 -7 4 C-6.34 4 -5.68 4 -5 4 C-5 3.34 -5 2.68 -5 2 C-2 0 -2 0 0 0 Z " fill="#6CA29E" transform="translate(204,219)"/>
<path d="M0 0 C0.33 0.66 0.66 1.32 1 2 C1.91523438 1.96519531 2.83046875 1.93039063 3.7734375 1.89453125 C4.96195313 1.86746094 6.15046875 1.84039062 7.375 1.8125 C8.55835938 1.77769531 9.74171875 1.74289063 10.9609375 1.70703125 C12.46527344 1.85205078 12.46527344 1.85205078 14 2 C16 5 16 5 15.625 7.6875 C15.41875 8.450625 15.2125 9.21375 15 10 C14.01 9.67 13.02 9.34 12 9 C12 7.68 12 6.36 12 5 C6.06 4.01 6.06 4.01 0 3 C0 2.01 0 1.02 0 0 Z " fill="#EDFAF9" transform="translate(225,169)"/>
<path d="M0 0 C6.19726403 0.39557004 10.88255086 2.47489018 16 6 C16.33 6.66 16.66 7.32 17 8 C16.319375 7.690625 15.63875 7.38125 14.9375 7.0625 C10.67963639 5.52242167 6.51650043 5 2 5 C2.33 3.68 2.66 2.36 3 1 C2.01 0.67 1.02 0.34 0 0 Z " fill="#EB772B" transform="translate(182,103)"/>
<path d="M0 0 C0.66 0 1.32 0 2 0 C2 0.66 2 1.32 2 2 C3.32 2.33 4.64 2.66 6 3 C3.17588235 3.94137255 1.47081968 4.11725382 -1.44921875 4.09765625 C-2.29677734 4.09443359 -3.14433594 4.09121094 -4.01757812 4.08789062 C-4.89865234 4.07951172 -5.77972656 4.07113281 -6.6875 4.0625 C-7.58017578 4.05798828 -8.47285156 4.05347656 -9.39257812 4.04882812 C-11.59511987 4.03704983 -13.79752599 4.02060164 -16 4 C-16 3.67 -16 3.34 -16 3 C-14.39318359 2.80083984 -14.39318359 2.80083984 -12.75390625 2.59765625 C-11.35674231 2.4194944 -9.95960841 2.24109681 -8.5625 2.0625 C-7.85544922 1.97548828 -7.14839844 1.88847656 -6.41992188 1.79882812 C-2.91182032 1.61783809 -2.91182032 1.61783809 0 0 Z " fill="#D7D3D5" transform="translate(83,341)"/>
<path d="M0 0 C0.66 0.33 1.32 0.66 2 1 C0.8125 2.5 0.8125 2.5 -1 4 C-3.6875 4.1875 -3.6875 4.1875 -6 4 C-5.67 4.99 -5.34 5.98 -5 7 C-8.3 7 -11.6 7 -15 7 C-15 6.34 -15 5.68 -15 5 C-14.00097656 4.72285156 -13.00195312 4.44570313 -11.97265625 4.16015625 C-10.66922209 3.79444451 -9.36583931 3.42854962 -8.0625 3.0625 C-7.40314453 2.88009766 -6.74378906 2.69769531 -6.06445312 2.50976562 C-2.76178827 1.77403899 -2.76178827 1.77403899 0 0 Z " fill="#E1F3F1" transform="translate(193,320)"/>
<path d="M0 0 C3.5786304 1.65167557 6.74820188 3.78286492 10 6 C9.67 6.99 9.34 7.98 9 9 C3.47368421 7.71052632 3.47368421 7.71052632 1.375 4.5625 C0 2 0 2 0 0 Z " fill="#5D9A91" transform="translate(13,211)"/>
<path d="M0 0 C0.66 0.66 1.32 1.32 2 2 C-0.31 4.64 -2.62 7.28 -5 10 C-5.99 9.67 -6.98 9.34 -8 9 C-8 8.34 -8 7.68 -8 7 C-7.01 6.34 -6.02 5.68 -5 5 C-4.505 3.9790625 -4.505 3.9790625 -4 2.9375 C-3 1 -3 1 0 0 Z " fill="#EEF6F7" transform="translate(232,159)"/>
<path d="M0 0 C2.37420608 2.37420608 2.25358306 3.20617265 2.625 6.4375 C3.00563125 8.86685075 3.00563125 8.86685075 4 11 C6.66063077 12.75558014 8.84390716 13.23642915 12 14 C12 14.33 12 14.66 12 15 C8.67179946 15.22692276 6.58198664 15.32162419 3.625 13.6875 C2 12 2 12 2 9 C1.34 9 0.68 9 0 9 C0 6.03 0 3.06 0 0 Z " fill="#7AA9A3" transform="translate(70,325)"/>
<path d="M0 0 C1.65 0 3.3 0 5 0 C5.33 0.99 5.66 1.98 6 3 C9.73437848 3.87867729 13.16774573 4.08912219 17 4 C16.67 4.66 16.34 5.32 16 6 C14.41705218 6.05437607 12.83355744 6.09296271 11.25 6.125 C10.36828125 6.14820313 9.4865625 6.17140625 8.578125 6.1953125 C5.84601513 5.98833448 4.29189821 5.47336314 2 4 C0.75 1.875 0.75 1.875 0 0 Z " fill="#FDEFD6" transform="translate(79,185)"/>
<path d="M0 0 C1.98 0 3.96 0 6 0 C5.814375 0.94875 5.62875 1.8975 5.4375 2.875 C4.71313368 5.89868793 4.71313368 5.89868793 6 8 C5.71887936 10.00800456 5.38932033 12.01014051 5 14 C2.60236815 11.60236815 2.65719414 10.66726502 2.375 7.375 C2.30023438 6.55773437 2.22546875 5.74046875 2.1484375 4.8984375 C2.09945312 4.27195313 2.05046875 3.64546875 2 3 C1.34 3 0.68 3 0 3 C0 2.01 0 1.02 0 0 Z " fill="#ED7C27" transform="translate(167,166)"/>
<path d="M0 0 C0.66 0.66 1.32 1.32 2 2 C2.66 1.34 3.32 0.68 4 0 C4.99 0.33 5.98 0.66 7 1 C5.515 3.475 5.515 3.475 4 6 C1.03 5.67 -1.94 5.34 -5 5 C-3.35 3.35 -1.7 1.7 0 0 Z " fill="#61A09B" transform="translate(218,206)"/>
<path d="M0 0 C0.33 0.66 0.66 1.32 1 2 C-3.62 2.33 -8.24 2.66 -13 3 C-13 3.66 -13 4.32 -13 5 C-13.66 5 -14.32 5 -15 5 C-15 4.01 -15 3.02 -15 2 C-10.13948404 -0.59227518 -5.34728867 -0.18689553 0 0 Z " fill="#FCF8EF" transform="translate(158,167)"/>
<path d="M0 0 C0.66 0.33 1.32 0.66 2 1 C1.5359375 2.1446875 1.5359375 2.1446875 1.0625 3.3125 C-0.33802581 8.17314841 -0.65979734 12.96858173 -1 18 C-1.33 18 -1.66 18 -2 18 C-2.33 15.03 -2.66 12.06 -3 9 C-3.33 9 -3.66 9 -4 9 C-4.25 6.75 -4.25 6.75 -4 4 C-2 1.6875 -2 1.6875 0 0 Z " fill="#F0772C" transform="translate(77,161)"/>
<path d="M0 0 C1 3 1 3 -0.65234375 6.57421875 C-1.40387723 7.95092168 -2.1660567 9.32185409 -2.9375 10.6875 C-3.51661133 11.7403418 -3.51661133 11.7403418 -4.10742188 12.81445312 C-5.06261773 14.54795672 -6.03015386 16.27465009 -7 18 C-7.66 17.67 -8.32 17.34 -9 17 C-7.70029728 11.93115938 -5.28762465 8.1910105 -2.33984375 3.953125 C-0.96571923 2.04576051 -0.96571923 2.04576051 0 0 Z " fill="#B4E2DE" transform="translate(257,145)"/>
<path d="M0 0 C0 0.66 0 1.32 0 2 C-2.25 3.5 -2.25 3.5 -5 5 C-5.928125 5.5878125 -5.928125 5.5878125 -6.875 6.1875 C-9.93216858 7.3564174 -12.76304407 7.12449831 -16 7 C-13.46702371 5.31134914 -11.20879805 4.13824363 -8.4375 2.9375 C-1.68679245 0 -1.68679245 0 0 0 Z " fill="#FDE3C5" transform="translate(186,218)"/>
<path d="M0 0 C0 0.66 0 1.32 0 2 C-3.07617188 2.29296875 -3.07617188 2.29296875 -6.15234375 2.5859375 C-6.76207031 2.72257813 -7.37179688 2.85921875 -8 3 C-8.33 3.66 -8.66 4.32 -9 5 C-11.475 4.01 -11.475 4.01 -14 3 C-14 2.67 -14 2.34 -14 2 C-12.42085985 1.46658816 -10.83645613 0.94874237 -9.25 0.4375 C-8.36828125 0.14746094 -7.4865625 -0.14257812 -6.578125 -0.44140625 C-3.92165684 -1.01697435 -2.52968894 -0.89248371 0 0 Z " fill="#66A49C" transform="translate(163,241)"/>
<path d="M0 0 C1.32 0.66 2.64 1.32 4 2 C2.33333333 3.66666667 0.66666667 5.33333333 -1 7 C-0.34 7.33 0.32 7.66 1 8 C-0.32 8.33 -1.64 8.66 -3 9 C-3.33 8.01 -3.66 7.02 -4 6 C-4.66 5.67 -5.32 5.34 -6 5 C-4.02 3.35 -2.04 1.7 0 0 Z " fill="#61A19C" transform="translate(211,212)"/>
<path d="M0 0 C4.48599743 1.25190626 7.59347128 2.79385533 11 6 C11 6.66 11 7.32 11 8 C9.68 7.34 8.36 6.68 7 6 C7 5.34 7 4.68 7 4 C5.35 4 3.7 4 2 4 C2 4.99 2 5.98 2 7 C1.34 7 0.68 7 0 7 C0 4.69 0 2.38 0 0 Z " fill="#EC7121" transform="translate(162,6)"/>
<path d="M0 0 C2.97 0.495 2.97 0.495 6 1 C5.67 1.66 5.34 2.32 5 3 C4.34 3 3.68 3 3 3 C3 3.66 3 4.32 3 5 C1.37373596 6.38232443 -0.2925002 7.71937515 -2 9 C-2 5.20442119 -1.49821059 3.37097383 0 0 Z " fill="#FCF1E3" transform="translate(72,6)"/>
<path d="M0 0 C0.33 0 0.66 0 1 0 C1.33 2.64 1.66 5.28 2 8 C2.99 8 3.98 8 5 8 C5 8.66 5 9.32 5 10 C7.31 10.66 9.62 11.32 12 12 C12 12.33 12 12.66 12 13 C5.66169154 13.36567164 5.66169154 13.36567164 2.625 11.6875 C-0.66675393 8.26914015 -0.08455959 4.48165822 0 0 Z " fill="#75A29D" transform="translate(156,327)"/>
<path d="M0 0 C0.99 0.66 1.98 1.32 3 2 C2.67 2.66 2.34 3.32 2 4 C-0.32156597 4.40729228 -2.6568787 4.74438677 -5 5 C-5 5.33 -5 5.66 -5 6 C-6.98 6 -8.96 6 -11 6 C-7.63148688 3.17044898 -4.15534616 1.43548322 0 0 Z " fill="#6BA39D" transform="translate(187,229)"/>
<path d="M0 0 C0.33 1.32 0.66 2.64 1 4 C0.01 4.33 -0.98 4.66 -2 5 C-3.22520264 8.00847418 -3.22520264 8.00847418 -4 11 C-4.66 11 -5.32 11 -6 11 C-6 11.99 -6 12.98 -6 14 C-6.99 14.33 -7.98 14.66 -9 15 C-7.61219205 11.10993227 -5.7847773 8.03441292 -3.375 4.6875 C-2.74335938 3.80449219 -2.11171875 2.92148438 -1.4609375 2.01171875 C-0.97882813 1.34785156 -0.49671875 0.68398437 0 0 Z " fill="#D3EBEA" transform="translate(227,203)"/>
<path d="M0 0 C4.29 0 8.58 0 13 0 C13.33 1.98 13.66 3.96 14 6 C12.989375 5.360625 11.97875 4.72125 10.9375 4.0625 C7.24780076 1.93151044 4.22139745 1.34460387 0 1 C0 0.67 0 0.34 0 0 Z " fill="#EA6F20" transform="translate(153,160)"/>
<path d="M0 0 C4.62 0 9.24 0 14 0 C14.33 0.99 14.66 1.98 15 3 C15.66 3 16.32 3 17 3 C16.67 3.66 16.34 4.32 16 5 C15.360625 4.505 14.72125 4.01 14.0625 3.5 C9.15485141 1.09625375 4.14394129 1.2853529 -1 3 C-0.67 2.01 -0.34 1.02 0 0 Z " fill="#ED8846" transform="translate(83,155)"/>
<path d="M0 0 C-0.99 0 -1.98 0 -3 0 C-3 0.66 -3 1.32 -3 2 C-6.62197194 3.49140021 -10.27566618 4.7874262 -14 6 C-14 5.34 -14 4.68 -14 4 C-12.42466914 3.13116294 -10.83935491 2.28040932 -9.25 1.4375 C-8.36828125 0.96183594 -7.4865625 0.48617188 -6.578125 -0.00390625 C-3.79298812 -1.07998186 -2.73019786 -1.06528748 0 0 Z " fill="#ED7E35" transform="translate(89,5)"/>
<path d="M0 0 C-4.42778844 2.74522883 -7.71862571 4.48474397 -13 5 C-13.33 4.34 -13.66 3.68 -14 3 C-12.23358317 2.3012307 -10.46167336 1.61633417 -8.6875 0.9375 C-7.20830078 0.36322266 -7.20830078 0.36322266 -5.69921875 -0.22265625 C-3 -1 -3 -1 0 0 Z " fill="#E8772C" transform="translate(186,218)"/>
<path d="M0 0 C0.33 0 0.66 0 1 0 C1.3125 3.1875 1.3125 3.1875 1 7 C-1.5 9.9375 -1.5 9.9375 -4 12 C-4.66 11.67 -5.32 11.34 -6 11 C-5.360625 10.835 -4.72125 10.67 -4.0625 10.5 C-1.83913184 9.22373282 -1.83913184 9.22373282 -1.546875 7.12109375 C-1.32825683 5.08430118 -1.16206908 3.0420704 -1 1 C-0.67 0.67 -0.34 0.34 0 0 Z " fill="#5F9991" transform="translate(88,327)"/>
<path d="M0 0 C5.36095277 1.58921525 10.70843973 3.18972938 16 5 C16 5.33 16 5.66 16 6 C10.34979382 5.39891424 5.33835539 3.92471317 0 2 C0 1.34 0 0.68 0 0 Z " fill="#FEE6C9" transform="translate(48,222)"/>
<path d="M0 0 C0.33 0.66 0.66 1.32 1 2 C1.66 2 2.32 2 3 2 C2.67 3.32 2.34 4.64 2 6 C1.01 5.67 0.02 5.34 -1 5 C-0.67 5.99 -0.34 6.98 0 8 C-0.66 8 -1.32 8 -2 8 C-2.33 8.99 -2.66 9.98 -3 11 C-4 8 -4 8 -3.22265625 5.95703125 C-2.83980469 5.24933594 -2.45695313 4.54164063 -2.0625 3.8125 C-1.68222656 3.09707031 -1.30195313 2.38164062 -0.91015625 1.64453125 C-0.60980469 1.10183594 -0.30945313 0.55914062 0 0 Z " fill="#67A09A" transform="translate(249,163)"/>
<path d="M0 0 C3.98175544 2.10148204 6.35039045 4.36905358 9 8 C8.67 8.66 8.34 9.32 8 10 C7.01 10 6.02 10 5 10 C5 8.68 5 7.36 5 6 C4.34 6 3.68 6 3 6 C2.67 5.01 2.34 4.02 2 3 C1.34 2.67 0.68 2.34 0 2 C0 1.34 0 0.68 0 0 Z " fill="#EC7D36" transform="translate(199,111)"/>
<path d="M0 0 C1.65 0 3.3 0 5 0 C2 3 -1 6 -4 9 C-4 7.68 -4 6.36 -4 5 C-3.34 5 -2.68 5 -2 5 C-2 4.34 -2 3.68 -2 3 C-1.34 3 -0.68 3 0 3 C0 2.01 0 1.02 0 0 Z " fill="#FEEAD0" transform="translate(43,108)"/>
<path d="M0 0 C0.93423645 3.01031744 1.04449911 3.86650268 0 7 C-0.99 7.495 -0.99 7.495 -2 8 C-3.13350534 10.01669827 -3.13350534 10.01669827 -4 12 C-4.66 12 -5.32 12 -6 12 C-4.43358249 7.69235185 -2.31663844 3.93828536 0 0 Z " fill="#E3F5F3" transform="translate(235,189)"/>
<path d="M0 0 C0 0.99 0 1.98 0 3 C-3.44450737 5.29633824 -5.93812283 5.54016485 -10 6 C-7.35570758 3.077361 -4.105808 0 0 0 Z " fill="#FDE1C5" transform="translate(200,210)"/>
<path d="M0 0 C0 0.99 0 1.98 0 3 C-1 4 -1 4 -4.59765625 4.09765625 C-6.08596867 4.0909822 -7.57426432 4.07902183 -9.0625 4.0625 C-9.82111328 4.05798828 -10.57972656 4.05347656 -11.36132812 4.04882812 C-13.24091871 4.0370068 -15.12046899 4.01907078 -17 4 C-16.67 3.34 -16.34 2.68 -16 2 C-14.64455078 2.03480469 -14.64455078 2.03480469 -13.26171875 2.0703125 C-11.49248047 2.09738281 -11.49248047 2.09738281 -9.6875 2.125 C-8.51574219 2.14820313 -7.34398437 2.17140625 -6.13671875 2.1953125 C-2.83606339 2.25320618 -2.83606339 2.25320618 0 0 Z " fill="#7AA6A1" transform="translate(243,167)"/>
<path d="M0 0 C3 1 3 1 5 3 C-0.75 6 -0.75 6 -3 6 C-3 4.68 -3 3.36 -3 2 C-2.01 1.34 -1.02 0.68 0 0 Z " fill="#FCF1E6" transform="translate(51,102)"/>
<path d="M0 0 C0.598125 0.33 1.19625 0.66 1.8125 1 C4.05386471 2.20787988 4.05386471 2.20787988 7 2 C7 3.32 7 4.64 7 6 C2.32307692 4.52307692 2.32307692 4.52307692 0.6875 1.875 C0.460625 1.25625 0.23375 0.6375 0 0 Z " fill="#51968E" transform="translate(22,221)"/>
<path d="M0 0 C0.33 0.66 0.66 1.32 1 2 C0.67 2.66 0.34 3.32 0 4 C-0.66 4 -1.32 4 -2 4 C-2.66 5.98 -3.32 7.96 -4 10 C-5.65 10.33 -7.3 10.66 -9 11 C-8.04956626 9.66102417 -7.08940853 8.32894573 -6.125 7 C-5.59132812 6.2575 -5.05765625 5.515 -4.5078125 4.75 C-4.01023438 4.1725 -3.51265625 3.595 -3 3 C-2.34 3 -1.68 3 -1 3 C-0.67 2.01 -0.34 1.02 0 0 Z " fill="#80B1A9" transform="translate(230,192)"/>
<path d="M0 0 C0.33 0.66 0.66 1.32 1 2 C0.22265625 3.9453125 0.22265625 3.9453125 -0.9375 6.125 C-1.31777344 6.84945312 -1.69804687 7.57390625 -2.08984375 8.3203125 C-2.54037109 9.15175781 -2.54037109 9.15175781 -3 10 C-4.32 9.67 -5.64 9.34 -7 9 C-4.69 6.03 -2.38 3.06 0 0 Z " fill="#92B1AB" transform="translate(238,181)"/>
<path d="M0 0 C2.475 0.495 2.475 0.495 5 1 C4.34 3.31 3.68 5.62 3 8 C2.34 7.67 1.68 7.34 1 7 C0.59270772 4.67843403 0.25561323 2.3431213 0 0 Z " fill="#629B93" transform="translate(246,173)"/>
<path d="M0 0 C2.0625 0.4375 2.0625 0.4375 4 1 C3.5020163 4.73487777 3.12508244 6.81237635 1 10 C0.34 10 -0.32 10 -1 10 C-1 9.34 -1 8.68 -1 8 C-0.34 8 0.32 8 1 8 C1.16687448 5.58354218 1.16687448 5.58354218 1 3 C0.34 2.34 -0.32 1.68 -1 1 C-0.67 0.67 -0.34 0.34 0 0 Z " fill="#DDEAE8" transform="translate(239,171)"/>
<path d="M0 0 C3.63 0 7.26 0 11 0 C11 0.33 11 0.66 11 1 C8.36 1 5.72 1 3 1 C2.67 2.32 2.34 3.64 2 5 C1.01 5 0.02 5 -1 5 C-0.67 3.35 -0.34 1.7 0 0 Z " fill="#F86A0B" transform="translate(171,103)"/>
<path d="M0 0 C2.0245738 1.93254772 3.42105792 3.63158688 5 6 C5 7.32 5 8.64 5 10 C4.01 10 3.02 10 2 10 C2 8.02 2 6.04 2 4 C1.34 4 0.68 4 0 4 C0 2.68 0 1.36 0 0 Z " fill="#EC7D35" transform="translate(173,14)"/>
<path d="M0 0 C2.97 0 5.94 0 9 0 C9.66 1.32 10.32 2.64 11 4 C7.37 3.01 3.74 2.02 0 1 C0 0.67 0 0.34 0 0 Z " fill="#EE7C37" transform="translate(52,223)"/>
<path d="M0 0 C2.125 0.375 2.125 0.375 4 1 C1.53846154 4.81538462 1.53846154 4.81538462 -1.1875 5.75 C-1.785625 5.8325 -2.38375 5.915 -3 6 C-2.42655063 3.13275314 -2.1385485 2.1385485 0 0 Z " fill="#FCE7CE" transform="translate(147,163)"/>
<path d="M0 0 C1.625 1.6875 1.625 1.6875 3 4 C2.17824769 7.13759973 1.29744125 8.70255875 -1 11 C-1.02688151 9.35425434 -1.04634123 7.70838587 -1.0625 6.0625 C-1.07410156 5.14597656 -1.08570313 4.22945312 -1.09765625 3.28515625 C-1 1 -1 1 0 0 Z " fill="#5F9F98" transform="translate(245,156)"/>
<path d="M0 0 C5.445 1.485 5.445 1.485 11 3 C9.02 3.99 9.02 3.99 7 5 C7 4.34 7 3.68 7 3 C5.35 3.33 3.7 3.66 2 4 C1.34 2.68 0.68 1.36 0 0 Z " fill="#71A5A0" transform="translate(59,236)"/>
<path d="M0 0 C0.91004613 3.07140568 1.33694826 5.79899154 1 9 C0.01 9.66 -0.98 10.32 -2 11 C-1.85892253 9.54119891 -1.71197585 8.08296449 -1.5625 6.625 C-1.48128906 5.81289062 -1.40007813 5.00078125 -1.31640625 4.1640625 C-1 2 -1 2 0 0 Z " fill="#EA762B" transform="translate(35,123)"/>
<path d="M0 0 C0.66 0.66 1.32 1.32 2 2 C0.741875 1.87625 -0.51625 1.7525 -1.8125 1.625 C-2.87404297 1.52058594 -2.87404297 1.52058594 -3.95703125 1.4140625 C-6 1 -6 1 -9 -1 C-5.37815976 -2.34142231 -3.4046087 -1.70230435 0 0 Z " fill="#D5EEEC" transform="translate(90,243)"/>
<path d="M0 0 C2.97 0.33 5.94 0.66 9 1 C9.33 2.32 9.66 3.64 10 5 C8.51800098 4.55090939 7.03944764 4.09043436 5.5625 3.625 C4.73878906 3.36976563 3.91507813 3.11453125 3.06640625 2.8515625 C1 2 1 2 0 0 Z " fill="#ED8944" transform="translate(32,214)"/>
<path d="M0 0 C3 1 3 1 4.1875 2.6875 C5.19313465 5.54969093 5.13689641 7.98827908 5 11 C0 3.5 0 3.5 0 0 Z " fill="#E86916" transform="translate(100,159)"/>
<path d="M0 0 C0.99 0.33 1.98 0.66 3 1 C1.02 3.31 -0.96 5.62 -3 8 C-3.66 7.34 -4.32 6.68 -5 6 C-3.35 4.02 -1.7 2.04 0 0 Z " fill="#E3F6F6" transform="translate(253,138)"/>
<path d="M0 0 C2.76223278 2.76223278 2.57856291 5.20706617 3 9 C1.68 8.01 0.36 7.02 -1 6 C-0.67 4.02 -0.34 2.04 0 0 Z " fill="#FED9B0" transform="translate(168,169)"/>
<path d="M0 0 C1 2 1 2 0.44140625 3.9453125 C0.15136719 4.66460938 -0.13867188 5.38390625 -0.4375 6.125 C-0.72496094 6.84945313 -1.01242188 7.57390625 -1.30859375 8.3203125 C-1.53675781 8.87460937 -1.76492187 9.42890625 -2 10 C-2.33 10 -2.66 10 -3 10 C-3.36923077 4.58461538 -3.36923077 4.58461538 -1.5 1.625 C-1.005 1.08875 -0.51 0.5525 0 0 Z " fill="#FEDFC1" transform="translate(81,19)"/>
<path d="M0 0 C2.46800047 1.15173355 4.04783565 2.04783565 6 4 C5.34 4 4.68 4 4 4 C4 4.66 4 5.32 4 6 C4.66 6 5.32 6 6 6 C5.67 6.66 5.34 7.32 5 8 C2.2175651 6.60878255 1.44789935 4.69835788 0 2 C0 1.34 0 0.68 0 0 Z " fill="#86ABA6" transform="translate(13,211)"/>
<path d="M0 0 C1.98 0.495 1.98 0.495 4 1 C4 2.65 4 4.3 4 6 C1.525 5.01 1.525 5.01 -1 4 C-0.67 2.68 -0.34 1.36 0 0 Z " fill="#65A19E" transform="translate(49,315)"/>
<path d="M0 0 C1.32 0.33 2.64 0.66 4 1 C-1.75 5 -1.75 5 -4 5 C-4 4.01 -4 3.02 -4 2 C-2.68 2 -1.36 2 0 2 C0 1.34 0 0.68 0 0 Z " fill="#E96F28" transform="translate(192,211)"/>
<path d="M0 0 C1.2065625 0.0309375 1.2065625 0.0309375 2.4375 0.0625 C2.4375 0.7225 2.4375 1.3825 2.4375 2.0625 C1.4475 2.3925 0.4575 2.7225 -0.5625 3.0625 C-1.2225 3.7225 -1.8825 4.3825 -2.5625 5.0625 C-3.125 3.125 -3.125 3.125 -3.5625 1.0625 C-2.5625 0.0625 -2.5625 0.0625 0 0 Z " fill="#549A93" transform="translate(222.5625,203.9375)"/>
</svg>
